<svg width="56" height="2240" viewBox="0 0 56 2240" fill="none" xmlns="http://www.w3.org/2000/svg">
<path d="M22 2214H6C3.8 2214 2 2215.8 2 2218V2234C2 2236.2 3.8 2238 6 2238H22C24.2 2238 26 2236.2 26 2234V2218C26 2215.8 24.2 2214 22 2214ZM21.4 2223.4L12 2232.8L6.6 2227.4C5.8 2226.6 5.8 2225.4 6.6 2224.6C7.4 2223.8 8.6 2223.8 9.4 2224.6L12 2227.2L18.6 2220.6C19.4 2219.8 20.6 2219.8 21.4 2220.6C22.2 2221.4 22.2 2222.6 21.4 2223.4Z" fill="white"/>
<path d="M42 2138C44.2091 2138 46 2136.21 46 2134C46 2131.79 44.2091 2130 42 2130C39.7909 2130 38 2131.79 38 2134C38 2136.21 39.7909 2138 42 2138Z" fill="white"/>
<path d="M41.0001 2139C40.5001 2139 39.8001 2139.4 39.4001 2139.8L34.5001 2147.1C34.2001 2147.6 34.4001 2148 34.9001 2148.2L41.0001 2149.7C41.5001 2149.8 42.4001 2149.8 42.9001 2149.7L49.0001 2148.2C49.5001 2148.1 49.7001 2147.6 49.4001 2147.1L44.5001 2139.8C44.2001 2139.3 43.5001 2139 42.9001 2139H41.0001Z" fill="white"/>
<path d="M39 2146C38.5 2146 38.1 2146.4 38.2 2147L39.7 2153.1C39.8 2153.6 40.4 2154.1 40.9 2154.1H42.9C43.4 2154.1 44 2153.7 44.1 2153.1L45.6 2147C45.7 2146.5 45.4 2146 44.8 2146H39Z" fill="white"/>
<path d="M14 2138C11.8 2138 10 2136.2 10 2134C10 2131.8 11.8 2130 14 2130C16.2 2130 18 2131.8 18 2134C18 2136.2 16.2 2138 14 2138ZM14 2132C12.9 2132 12 2132.9 12 2134C12 2135.1 12.9 2136 14 2136C15.1 2136 16 2135.1 16 2134C16 2132.9 15.1 2132 14 2132Z" fill="white"/>
<path d="M16.0001 2154H12.0001C11.5001 2154 11.1001 2153.7 11.0001 2153.2L10.1001 2148.8L6.80011 2148C6.50011 2147.9 6.20011 2147.7 6.10011 2147.4C6.00011 2147.1 6.00011 2146.7 6.20011 2146.5L11.2001 2139.5C11.4001 2139.2 11.7001 2139.1 12.0001 2139.1H16.0001C16.3001 2139.1 16.6001 2139.3 16.8001 2139.5L21.8001 2146.5C22.0001 2146.8 22.0001 2147.1 21.9001 2147.4C21.8001 2147.7 21.5001 2147.9 21.2001 2148L17.8001 2148.8L16.9001 2153.2C16.9001 2153.7 16.5001 2154 16.0001 2154ZM12.8001 2152H15.2001L16.0001 2147.8C16.1001 2147.4 16.4001 2147.1 16.7001 2147L19.3001 2146.4L15.5001 2141H12.5001L8.70011 2146.4L11.3001 2147C11.7001 2147.1 12.0001 2147.4 12.0001 2147.8L12.8001 2152Z" fill="white"/>
<path d="M42 2110C44.2091 2110 46 2108.21 46 2106C46 2103.79 44.2091 2102 42 2102C39.7909 2102 38 2103.79 38 2106C38 2108.21 39.7909 2110 42 2110Z" fill="white"/>
<path d="M39 2118C38.5 2118 38.1 2118.4 38.2 2119L39.7 2125.1C39.8 2125.6 40.4 2126.1 40.9 2126.1H42.9C43.4 2126.1 44 2125.7 44.1 2125.1L45.6 2119C45.7 2118.5 45.4 2118 44.8 2118H39Z" fill="white"/>
<path d="M36 2112C36 2111.4 36.5 2111 37 2111H47C47.5 2111 48 2111.4 48 2112V2117C48 2117.6 47.6 2118.2 47.1 2118.4L42.9 2120.5C42.4 2120.7 41.6 2120.7 41.1 2120.5L36.9 2118.4C36.4 2118.2 36 2117.5 36 2117V2112Z" fill="white"/>
<path d="M14 2110C11.8 2110 10 2108.2 10 2106C10 2103.8 11.8 2102 14 2102C16.2 2102 18 2103.8 18 2106C18 2108.2 16.2 2110 14 2110ZM14 2104C12.9 2104 12 2104.9 12 2106C12 2107.1 12.9 2108 14 2108C15.1 2108 16 2107.1 16 2106C16 2104.9 15.1 2104 14 2104Z" fill="white"/>
<path d="M16 2126H12C11.5 2126 11.1 2125.6 11 2125.2L10.1 2119.7L8.6 2118.9C8.2 2118.7 8 2118.4 8 2118V2112C8 2111.4 8.4 2111 9 2111H19C19.6 2111 20 2111.4 20 2112V2118C20 2118.4 19.8 2118.7 19.4 2118.9L17.9 2119.7L17 2125.2C16.9 2125.6 16.5 2126 16 2126ZM12.8 2124H15.1L16 2118.8C16.1 2118.5 16.3 2118.2 16.5 2118.1L17.9 2117.4V2113H9.9V2117.4L11.3 2118.1C11.6 2118.2 11.8 2118.5 11.8 2118.8L12.8 2124Z" fill="white"/>
<path d="M53 2079H51H48V2076C48 2074.9 47.1 2074 46 2074H38C36.9 2074 36 2074.9 36 2076V2079H33H31C30.4 2079 30 2079.4 30 2080C30 2080.6 30.4 2081 31 2081H32V2095C32 2096.7 33.3 2098 35 2098H49C50.7 2098 52 2096.7 52 2095V2081H53C53.6 2081 54 2080.6 54 2080C54 2079.4 53.6 2079 53 2079ZM38 2076H46V2079H38V2076ZM39 2093C39 2093.6 38.6 2094 38 2094C37.4 2094 37 2093.6 37 2093V2084C37 2083.4 37.4 2083 38 2083C38.6 2083 39 2083.4 39 2084V2093ZM43 2093C43 2093.6 42.6 2094 42 2094C41.4 2094 41 2093.6 41 2093V2084C41 2083.4 41.4 2083 42 2083C42.6 2083 43 2083.4 43 2084V2093ZM47 2093C47 2093.6 46.6 2094 46 2094C45.4 2094 45 2093.6 45 2093V2084C45 2083.4 45.4 2083 46 2083C46.6 2083 47 2083.4 47 2084V2093Z" fill="#BDBEBE"/>
<path d="M3 2080H25" stroke="#BDBEBE" stroke-width="2" stroke-miterlimit="10" stroke-linecap="round" stroke-linejoin="round"/>
<path d="M5 2080V2095C5 2096.1 5.9 2097 7 2097H21C22.1 2097 23 2096.1 23 2095V2080" stroke="#BDBEBE" stroke-width="2" stroke-miterlimit="10" stroke-linecap="round" stroke-linejoin="round"/>
<path d="M14 2084V2093" stroke="#BDBEBE" stroke-width="2" stroke-miterlimit="10" stroke-linecap="round" stroke-linejoin="round"/>
<path d="M10 2084V2093" stroke="#BDBEBE" stroke-width="2" stroke-miterlimit="10" stroke-linecap="round" stroke-linejoin="round"/>
<path d="M18 2084V2093" stroke="#BDBEBE" stroke-width="2" stroke-miterlimit="10" stroke-linecap="round" stroke-linejoin="round"/>
<path d="M9 2079V2076C9 2075.4 9.4 2075 10 2075H18C18.6 2075 19 2075.4 19 2076V2079" stroke="#BDBEBE" stroke-width="2" stroke-miterlimit="10" stroke-linecap="round" stroke-linejoin="round"/>
<path d="M11.9001 2060.5C10.7001 2059.8 9.90012 2058.5 10.0001 2057.1C10.0001 2054.9 11.8001 2053.1 14.0001 2053.1C15.5001 2053.1 16.7001 2053.9 17.4001 2055" stroke="#BDBEBE" stroke-width="2" stroke-miterlimit="10"/>
<path d="M17.9 2058C17.5 2059.4 16.4 2060.6 15 2060.9" stroke="#BDBEBE" stroke-width="2" stroke-miterlimit="10" stroke-linecap="round"/>
<path d="M21.8999 2054.2C22.9999 2054.8 23.9999 2055.6 24.9999 2056.5" stroke="#BDBEBE" stroke-width="2" stroke-miterlimit="10" stroke-linecap="round"/>
<path d="M3 2056.4C5.9 2053.7 9.8 2052 14 2052.1C15.7 2052.1 17.4 2052.4 18.9 2052.9" stroke="#BDBEBE" stroke-width="2" stroke-miterlimit="10" stroke-linecap="round"/>
<path d="M8.7 2063C7.7 2062.6 6.8 2062.1 6 2061.5" stroke="#BDBEBE" stroke-width="2" stroke-miterlimit="10" stroke-linecap="round"/>
<path d="M22 2061.6C19.7 2063.2 17 2064.1 14 2064.1C13.3 2064.1 12.6 2064 12 2063.9" stroke="#BDBEBE" stroke-width="2" stroke-miterlimit="10" stroke-linecap="round"/>
<path d="M23.8999 2048L3.8999 2068" stroke="#BDBEBE" stroke-width="2" stroke-miterlimit="10" stroke-linecap="round"/>
<path d="M14 2032.9C16.2091 2032.9 18 2031.11 18 2028.9C18 2026.69 16.2091 2024.9 14 2024.9C11.7909 2024.9 10 2026.69 10 2028.9C10 2031.11 11.7909 2032.9 14 2032.9Z" stroke="#BDBEBE" stroke-width="1.9928" stroke-miterlimit="10"/>
<path d="M3 2028.3C5.9 2025.6 9.8 2023.9 14 2024C18.3 2024 22.1 2025.7 25 2028.4" stroke="#BDBEBE" stroke-width="1.9928" stroke-miterlimit="10" stroke-linecap="round"/>
<path d="M21.8999 2033.5C19.5999 2035.1 16.8999 2036 13.8999 2036C10.8999 2036 8.1999 2035.1 5.8999 2033.5" stroke="#BDBEBE" stroke-width="1.9928" stroke-miterlimit="10" stroke-linecap="round"/>
<path d="M14.5 2001.5V2002.5H13.5V2001.5H14.5ZM16.5 1999.5H11.5V2004.5H16.5V1999.5Z" fill="#BDBEBE"/>
<path d="M14.5 2009V2010H13.5V2009H14.5ZM16.5 2007H11.5V2012H16.5V2007Z" fill="#BDBEBE"/>
<path d="M14.5 1994V1995H13.5V1994H14.5ZM16.5 1992H11.5V1997H16.5V1992Z" fill="#BDBEBE"/>
<g opacity="0.7">
<path d="M10 1984H6C5.4 1984 5 1983.6 5 1983V1965C5 1964.4 5.4 1964 6 1964H10C10.6 1964 11 1964.4 11 1965V1983C11 1983.6 10.6 1984 10 1984Z" fill="white"/>
<path d="M22 1984H18C17.4 1984 17 1983.6 17 1983V1965C17 1964.4 17.4 1964 18 1964H22C22.6 1964 23 1964.4 23 1965V1983C23 1983.6 22.6 1984 22 1984Z" fill="white"/>
</g>
<path d="M22 1945.2V1946C22 1951 18 1955 13 1955C8 1955 4 1951 4 1946C4 1941 8 1937 13 1937C15.8 1937 18.3 1938.3 20 1940.3" stroke="#BDBEBE" stroke-width="2" stroke-miterlimit="10" stroke-linecap="round"/>
<path d="M19.2 1947L22 1944.2L24.7999 1947" stroke="#BDBEBE" stroke-width="2" stroke-miterlimit="10" stroke-linecap="round" stroke-linejoin="round"/>
<path d="M53.5 1913.2L48.7 1910.2C48.5 1910.1 48.4 1910 48.2 1910H36C35.8 1910 35.6 1910 35.5 1910.1L30.5 1913.1C30.2 1913.3 30 1913.6 30 1914V1925C30 1925.6 30.4 1926 31 1926H35C35.1 1926 35.3 1926 35.4 1925.9L40.2 1924H42C42.6 1924 43 1923.6 43 1923V1915.7L52.5 1920.9C52.8 1921.1 53.2 1921.1 53.5 1920.9C53.8 1920.7 54 1920.4 54 1920V1914C54 1913.7 53.8 1913.3 53.5 1913.2ZM39 1919H38V1920C38 1920.6 37.6 1921 37 1921C36.4 1921 36 1920.6 36 1920V1919H35C34.4 1919 34 1918.6 34 1918C34 1917.4 34.4 1917 35 1917H36V1916C36 1915.4 36.4 1915 37 1915C37.6 1915 38 1915.4 38 1916V1917H39C39.6 1917 40 1917.4 40 1918C40 1918.6 39.6 1919 39 1919Z" fill="white"/>
<path d="M46 1930C45.8 1930 45.7 1930 45.5 1929.9C45.2 1929.7 45 1929.4 45 1929V1921C45 1920.6 45.2 1920.3 45.5 1920.1C45.8 1919.9 46.2 1919.9 46.5 1920.1L53.5 1924.1C53.8 1924.3 54 1924.6 54 1925C54 1925.4 53.8 1925.7 53.5 1925.9L46.5 1929.9C46.3 1930 46.2 1930 46 1930Z" fill="white"/>
<path d="M25 1921V1914L20.2 1911H8L3 1914V1925H7L12 1923H14" stroke="#BDBEBE" stroke-width="2" stroke-miterlimit="10" stroke-linecap="round" stroke-linejoin="round"/>
<path d="M7 1918H11" stroke="#BDBEBE" stroke-width="2" stroke-miterlimit="10" stroke-linecap="round" stroke-linejoin="round"/>
<path d="M9 1916V1920" stroke="#BDBEBE" stroke-width="2" stroke-miterlimit="10" stroke-linecap="round" stroke-linejoin="round"/>
<path d="M18 1915C17.2 1915 16.5 1915.7 16.5 1916.5C16.5 1917.3 17.2 1918 18 1918C18.8 1918 19.5 1917.3 19.5 1916.5C19.5 1915.7 18.8 1915 18 1915Z" fill="#BDBEBE"/>
<path d="M18 1921L25 1925L18 1929V1921Z" stroke="#BDBEBE" stroke-width="2" stroke-miterlimit="10" stroke-linecap="round" stroke-linejoin="round"/>
<path d="M53.7 1900.3L49.9 1896.5C50.6 1895.5 51 1894.3 51 1893C51 1889.7 48.3 1887 45 1887C41.7 1887 39 1889.7 39 1893C39 1896.3 41.7 1899 45 1899C46.3 1899 47.5 1898.6 48.5 1897.9L52.3 1901.7C52.5 1901.9 52.8 1902 53 1902C53.2 1902 53.5 1901.9 53.7 1901.7C54.1 1901.3 54.1 1900.7 53.7 1900.3ZM45 1897C42.8 1897 41 1895.2 41 1893C41 1890.8 42.8 1889 45 1889C47.2 1889 49 1890.8 49 1893C49 1895.2 47.2 1897 45 1897Z" fill="white"/>
<path d="M41.2 1900C41 1899.9 40.7 1899.8 40.5 1899.6C38.3 1898.1 36.9 1895.6 36.9 1892.9C36.9 1892.6 36.9 1892.2 37 1891.9H35C34.4 1891.9 34 1891.5 34 1890.9C34 1890.3 34.4 1889.9 35 1889.9H37.6C37.9 1889.2 38.3 1888.5 38.8 1887.9H35C34.4 1887.9 34 1887.5 34 1886.9C34 1886.3 34.4 1885.9 35 1885.9H41H41.1C42.7 1885 44.7 1884.6 46.8 1885.1C47.3 1885.2 47.9 1884.9 48 1884.3C48 1884.2 48 1884 48 1883.9C48 1883.9 48 1883.9 48 1883.8V1878.8C48 1878.2 47.6 1877.8 47 1877.8H31C30.4 1877.8 30 1878.2 30 1878.8V1900.8C30 1901.4 30.4 1901.8 31 1901.8H40.7H41H41.3C41.5 1901.7 41.7 1901.6 41.9 1901.3C42 1901.2 42 1901 42 1900.8C42 1900.8 42 1900.8 42 1900.7C42 1900.5 41.7 1900.2 41.2 1900ZM35 1882H43C43.6 1882 44 1882.4 44 1883C44 1883.6 43.6 1884 43 1884H35C34.4 1884 34 1883.6 34 1883C34 1882.4 34.4 1882 35 1882Z" fill="white"/>
<path d="M19 1884V1879H3V1901H14" stroke="#BDBEBE" stroke-width="2" stroke-miterlimit="10" stroke-linecap="round" stroke-linejoin="round"/>
<path d="M17 1898C19.7614 1898 22 1895.76 22 1893C22 1890.24 19.7614 1888 17 1888C14.2386 1888 12 1890.24 12 1893C12 1895.76 14.2386 1898 17 1898Z" stroke="#BDBEBE" stroke-width="2" stroke-miterlimit="10" stroke-linecap="round" stroke-linejoin="round"/>
<path d="M21 1897L25 1901" stroke="#BDBEBE" stroke-width="2" stroke-miterlimit="10" stroke-linecap="round" stroke-linejoin="round"/>
<path d="M7 1883H15" stroke="#BDBEBE" stroke-width="2" stroke-miterlimit="10" stroke-linecap="round" stroke-linejoin="round"/>
<path d="M7 1887H10" stroke="#BDBEBE" stroke-width="2" stroke-miterlimit="10" stroke-linecap="round" stroke-linejoin="round"/>
<path d="M7 1891H8" stroke="#BDBEBE" stroke-width="2" stroke-miterlimit="10" stroke-linecap="round" stroke-linejoin="round"/>
<path d="M54 1852V1866C54 1866.6 53.6 1867 53 1867H44.6L39.8 1872.6C39.6 1872.8 39.3 1873 39 1873C38.9 1873 38.8 1873 38.7 1872.9C38.3 1872.8 38 1872.4 38 1872V1867H31C30.4 1867 30 1866.6 30 1866V1852C30 1851.4 30.4 1851 31 1851H53C53.6 1851 54 1851.4 54 1852ZM38 1859C38 1857.9 37.1 1857 36 1857C34.9 1857 34 1857.9 34 1859C34 1860.1 34.9 1861 36 1861C37.1 1861 38 1860.1 38 1859ZM44 1859C44 1857.9 43.1 1857 42 1857C40.9 1857 40 1857.9 40 1859C40 1860.1 40.9 1861 42 1861C43.1 1861 44 1860.1 44 1859ZM50 1859C50 1857.9 49.1 1857 48 1857C46.9 1857 46 1857.9 46 1859C46 1860.1 46.9 1861 48 1861C49.1 1861 50 1860.1 50 1859Z" fill="white"/>
<path d="M25 1852H3V1866H11V1872L16.1 1866H25V1852Z" stroke="#BDBEBE" stroke-width="2" stroke-miterlimit="10" stroke-linecap="round" stroke-linejoin="round"/>
<path d="M8 1860C8.55228 1860 9 1859.55 9 1859C9 1858.45 8.55228 1858 8 1858C7.44772 1858 7 1858.45 7 1859C7 1859.55 7.44772 1860 8 1860Z" stroke="#BDBEBE" stroke-width="2" stroke-miterlimit="10"/>
<path d="M14 1860C14.5523 1860 15 1859.55 15 1859C15 1858.45 14.5523 1858 14 1858C13.4477 1858 13 1858.45 13 1859C13 1859.55 13.4477 1860 14 1860Z" stroke="#BDBEBE" stroke-width="2" stroke-miterlimit="10"/>
<path d="M20 1860C20.5523 1860 21 1859.55 21 1859C21 1858.45 20.5523 1858 20 1858C19.4477 1858 19 1858.45 19 1859C19 1859.55 19.4477 1860 20 1860Z" stroke="#BDBEBE" stroke-width="2" stroke-miterlimit="10"/>
<path d="M42 1822C35.4 1822 30 1827.4 30 1834C30 1840.6 35.4 1846 42 1846C48.6 1846 54 1840.6 54 1834C54 1827.4 48.6 1822 42 1822ZM51.8 1835.8L51 1835.4V1834.6L52 1834.1C52 1834.7 51.9 1835.3 51.8 1835.8ZM39.1 1824.4L40.1 1826.4C40.3 1826.7 40.6 1827 41 1827H44C44.3 1827 44.5 1826.9 44.7 1826.7L46.4 1825C46.6 1825.1 46.7 1825.2 46.9 1825.3L46 1828.8C46 1828.9 46 1829 46 1829V1831.6L43.5 1834.1L38.8 1835C38.3 1835.1 38 1835.5 38 1836V1838.6L34.9 1835.5L33 1830.7C32.9 1830.6 32.9 1830.5 32.8 1830.4C33.8 1827.5 36.2 1825.3 39.1 1824.4ZM41 1843.9V1842.4L42.2 1841.2L43.6 1841.9C43.7 1841.9 43.8 1842 43.9 1842L47.1 1842.6C45.6 1843.5 43.9 1844 42.1 1844C41.7 1844 41.3 1844 41 1843.9Z" fill="white"/>
<path d="M14 1846C7.4 1846 2 1840.6 2 1834C2 1827.4 7.4 1822 14 1822C20.6 1822 26 1827.4 26 1834C26 1840.6 20.6 1846 14 1846ZM14 1824C8.5 1824 4 1828.5 4 1834C4 1839.5 8.5 1844 14 1844C19.5 1844 24 1839.5 24 1834C24 1828.5 19.5 1824 14 1824Z" fill="#BDBEBE"/>
<path d="M9.9999 1841C9.6999 1841 9.4999 1840.9 9.2999 1840.7L5.2999 1836.7C5.1999 1836.6 5.0999 1836.5 5.0999 1836.4L3.0999 1831.4C2.8999 1830.9 3.0999 1830.3 3.6999 1830.1C4.1999 1829.9 4.7999 1830.1 4.9999 1830.7L6.8999 1835.5L9.9999 1838.6V1836C9.9999 1835.5 10.2999 1835.1 10.7999 1835L15.4999 1834.1L17.9999 1831.6V1829C17.9999 1828.9 17.9999 1828.8 17.9999 1828.8L18.9999 1824.8C19.0999 1824.3 19.6999 1823.9 20.1999 1824.1C20.6999 1824.2 21.0999 1824.8 20.8999 1825.3L19.8999 1829.2V1832.1C19.8999 1832.4 19.7999 1832.6 19.5999 1832.8L16.5999 1835.8C16.4999 1835.9 16.2999 1836 16.0999 1836.1L11.8999 1836.9V1839.1C11.8999 1839.4 11.7999 1839.6 11.5999 1839.8L10.5999 1840.8C10.4999 1840.9 10.2999 1841 9.9999 1841Z" fill="#BDBEBE"/>
<path d="M15.9999 1827H12.9999C12.5999 1827 12.2999 1826.8 12.0999 1826.4L11.0999 1824.4C10.8999 1823.9 11.0999 1823.3 11.4999 1823.1C11.9999 1822.9 12.5999 1823.1 12.7999 1823.5L13.4999 1824.9H15.4999L17.1999 1823.2C17.5999 1822.8 18.1999 1822.8 18.5999 1823.2C18.9999 1823.6 18.9999 1824.2 18.5999 1824.6L16.5999 1826.6C16.4999 1826.9 16.2999 1827 15.9999 1827Z" fill="#BDBEBE"/>
<path d="M12 1845C11.4 1845 11 1844.6 11 1844V1842C11 1841.7 11.1 1841.5 11.3 1841.3L13.3 1839.3C13.6 1839 14.1 1838.9 14.5 1839.1L16.4 1840L21.3 1841C21.8 1841.1 22.2 1841.6 22.1 1842.2C22 1842.7 21.5 1843.1 20.9 1843L15.9 1842C15.8 1842 15.7 1842 15.6 1841.9L14.2 1841.2L13 1842.4V1844C13 1844.6 12.6 1845 12 1845Z" fill="#BDBEBE"/>
<path d="M24 1838C23.9 1838 23.7 1838 23.6 1837.9L21.6 1836.9C21.3 1836.7 21 1836.4 21 1836V1834C21 1833.6 21.2 1833.3 21.6 1833.1L23.6 1832.1C24.1 1831.9 24.7 1832.1 24.9 1832.5C25.1 1832.9 24.9 1833.6 24.5 1833.8L23.1 1834.5V1835.3L24.5 1836C25 1836.2 25.2 1836.8 24.9 1837.3C24.7 1837.8 24.4 1838 24 1838Z" fill="#BDBEBE"/>
<path d="M32 1798.8L40.1 1797.7V1805.6H32V1798.8ZM40.2 1806.5V1814.4L32.1 1813.3V1806.5H40.2ZM41.1 1797.6L51.9 1796V1805.5L41.1 1805.6V1797.6ZM52 1806.6V1816L41.2 1814.5V1806.6H52Z" fill="#BDBEBE"/>
<path d="M21.9 1811.6C21.6 1812.3 21.2 1812.9 20.8 1813.5C20.2 1814.3 19.8 1814.9 19.4 1815.2C18.8 1815.7 18.3 1816 17.6 1816C17.1 1816 16.6 1815.9 16 1815.6C15.4 1815.3 14.8 1815.2 14.2 1815.2C13.6 1815.2 13 1815.3 12.4 1815.6C11.8 1815.9 11.2 1816 10.8 1816C10.2 1816 9.6 1815.8 9 1815.2C8.6 1814.9 8.1 1814.3 7.6 1813.5C7 1812.6 6.5 1811.6 6.1 1810.5C5.7 1809.3 5.5 1808 5.5 1806.9C5.5 1805.6 5.8 1804.4 6.4 1803.4C6.9 1802.6 7.5 1802 8.2 1801.6C8.9 1801.2 9.8 1800.9 10.7 1800.9C11.2 1800.9 11.8 1801 12.6 1801.3C13.4 1801.6 13.9 1801.7 14.1 1801.7C14.3 1801.7 14.8 1801.5 15.8 1801.2C16.7 1800.9 17.5 1800.7 18.1 1800.8C19.8 1800.9 21 1801.6 21.9 1802.8C20.4 1803.7 19.7 1805 19.7 1806.6C19.7 1807.9 20.2 1808.9 21.1 1809.8C21.5 1810.2 22 1810.5 22.5 1810.7C22.2 1811.1 22.1 1811.4 21.9 1811.6ZM18.1 1796.4C18.1 1797.4 17.7 1798.3 17 1799.2C16.1 1800.2 15.1 1800.8 13.9 1800.7C13.9 1800.6 13.9 1800.5 13.9 1800.3C13.9 1799.3 14.3 1798.3 15.1 1797.5C15.5 1797.1 15.9 1796.7 16.5 1796.4C17.1 1796.1 17.6 1796 18.1 1795.9C18.1 1796.1 18.1 1796.4 18.1 1796.4Z" fill="#BDBEBE"/>
<path d="M10 1787C9.7 1787 9.5 1786.9 9.3 1786.7C8.9 1786.3 8.9 1785.7 9.3 1785.3L16.6 1778L9.3 1770.7C8.9 1770.3 8.9 1769.7 9.3 1769.3C9.7 1768.9 10.3 1768.9 10.7 1769.3L18.7 1777.3C19.1 1777.7 19.1 1778.3 18.7 1778.7L10.7 1786.7C10.5 1786.9 10.3 1787 10 1787Z" fill="#BDBEBE"/>
<path d="M7 1758C6.7 1758 6.5 1757.9 6.3 1757.7C5.9 1757.3 5.9 1756.7 6.3 1756.3L20.3 1742.3C20.7 1741.9 21.3 1741.9 21.7 1742.3C22.1 1742.7 22.1 1743.3 21.7 1743.7L7.7 1757.7C7.5 1757.9 7.3 1758 7 1758Z" fill="#BDBEBE"/>
<path d="M21 1758C20.7 1758 20.5 1757.9 20.3 1757.7L6.3 1743.7C5.9 1743.3 5.9 1742.7 6.3 1742.3C6.7 1741.9 7.3 1741.9 7.7 1742.3L21.7 1756.3C22.1 1756.7 22.1 1757.3 21.7 1757.7C21.5 1757.9 21.3 1758 21 1758Z" fill="#BDBEBE"/>
<path d="M51 1713H33V1731H51V1713Z" fill="white" stroke="white" stroke-width="2" stroke-miterlimit="10" stroke-linecap="round" stroke-linejoin="round"/>
<path opacity="0.7" d="M23 1713H5V1731H23V1713Z" stroke="white" stroke-width="2" stroke-miterlimit="10" stroke-linecap="round" stroke-linejoin="round"/>
<path d="M35 1685L51 1694L35 1703V1685Z" fill="white" stroke="white" stroke-width="2" stroke-miterlimit="10" stroke-linecap="round" stroke-linejoin="round"/>
<path opacity="0.7" d="M7 1685L23 1694L7 1703V1685Z" stroke="white" stroke-width="2" stroke-miterlimit="10" stroke-linecap="round" stroke-linejoin="round"/>
<g opacity="0.7">
<path d="M25 1665H11V1677H25V1665Z" stroke="white" stroke-width="2" stroke-miterlimit="10" stroke-linecap="round" stroke-linejoin="round"/>
<path d="M18 1672C19.1046 1672 20 1671.1 20 1670C20 1668.9 19.1046 1668 18 1668C16.8954 1668 16 1668.9 16 1670C16 1671.1 16.8954 1672 18 1672Z" stroke="white" stroke-width="2" stroke-miterlimit="10" stroke-linecap="round" stroke-linejoin="round"/>
<path d="M18 1672V1674" stroke="white" stroke-width="2" stroke-miterlimit="10" stroke-linecap="round" stroke-linejoin="round"/>
<path d="M3 1665V1660C3 1657.2 5.2 1655 8 1655C10.8 1655 13 1657.2 13 1660V1665" stroke="white" stroke-width="2" stroke-miterlimit="10" stroke-linecap="round" stroke-linejoin="round"/>
</g>
<g opacity="0.7">
<path d="M21 1637H7V1649H21V1637Z" stroke="white" stroke-width="2" stroke-miterlimit="10" stroke-linecap="round" stroke-linejoin="round"/>
<path d="M14 1644C15.1046 1644 16 1643.1 16 1642C16 1640.9 15.1046 1640 14 1640C12.8954 1640 12 1640.9 12 1642C12 1643.1 12.8954 1644 14 1644Z" stroke="white" stroke-width="2" stroke-miterlimit="10" stroke-linecap="round" stroke-linejoin="round"/>
<path d="M14 1644V1646" stroke="white" stroke-width="2" stroke-miterlimit="10" stroke-linecap="round" stroke-linejoin="round"/>
<path d="M9 1637V1632C9 1629.2 11.2 1627 14 1627C16.8 1627 19 1629.2 19 1632V1637" stroke="white" stroke-width="2" stroke-miterlimit="10" stroke-linecap="round" stroke-linejoin="round"/>
</g>
<path d="M37 1603.1V1599.3C37 1599.1 37.1 1599 37.3 1599H48.9C49 1599 49.1 1599 49.1 1599.1L52.9 1603.1C53 1603.2 53 1603.2 53 1603.3V1616.7C53 1616.9 52.9 1617 52.7 1617H47" stroke="white" stroke-width="2" stroke-miterlimit="10"/>
<path d="M48 1600V1603.7C48 1603.9 48.1 1604 48.3 1604H52" stroke="white" stroke-width="2" stroke-miterlimit="10"/>
<path d="M47.6 1606.4L43.9 1602.5C43.7 1602.2 43.4 1602 42.9 1602H31.3C30.5 1602 30 1602.6 30 1603.3V1620.7C30 1621.5 30.5 1622 31.3 1622H46.7C47.5 1622 48 1621.4 48 1620.7V1607.3C48 1606.9 47.8 1606.6 47.6 1606.4ZM34 1608H40C40.5 1608 41 1608.5 41 1609C41 1609.5 40.5 1610 40 1610H34C33.5 1610 33 1609.5 33 1609C33 1608.5 33.4 1608 34 1608ZM44 1618H34C33.5 1618 33 1617.5 33 1617C33 1616.5 33.5 1616 34 1616H44C44.5 1616 45 1616.5 45 1617C45 1617.5 44.5 1618 44 1618ZM44 1614H34C33.5 1614 33 1613.6 33 1613C33 1612.4 33.5 1612 34 1612H44C44.5 1612 45 1612.4 45 1613C45 1613.6 44.5 1614 44 1614ZM43 1607V1604L46 1607H43Z" fill="white"/>
<path d="M6 1613H16" stroke="#BDBEBE" stroke-width="2" stroke-miterlimit="10" stroke-linecap="round" stroke-linejoin="round"/>
<path d="M6 1609H11" stroke="#BDBEBE" stroke-width="2" stroke-miterlimit="10" stroke-linecap="round" stroke-linejoin="round"/>
<path d="M6 1617H16" stroke="#BDBEBE" stroke-width="2" stroke-miterlimit="10" stroke-linecap="round" stroke-linejoin="round"/>
<path d="M3.3 1603H14.9C15 1603 15.1 1603 15.1 1603.1L18.9 1607.1C19 1607.2 19 1607.2 19 1607.3V1620.7C19 1620.9 18.9 1621 18.7 1621H3.3C3.1 1621 3 1620.9 3 1620.7V1603.3C3 1603.1 3.1 1603 3.3 1603Z" stroke="#BDBEBE" stroke-width="2" stroke-miterlimit="10"/>
<path d="M14 1604V1607.7C14 1607.9 14.1 1608 14.3 1608H18" stroke="#BDBEBE" stroke-width="2" stroke-miterlimit="10"/>
<path d="M9 1603.1V1599.3C9 1599.1 9.1 1599 9.3 1599H20.9C21 1599 21.1 1599 21.1 1599.1L24.9 1603.1C25 1603.2 25 1603.2 25 1603.3V1616.7C25 1616.9 24.9 1617 24.7 1617H19" stroke="#BDBEBE" stroke-width="2" stroke-miterlimit="10"/>
<path d="M20 1600V1603.7C20 1603.9 20.1 1604 20.3 1604H24" stroke="#BDBEBE" stroke-width="2" stroke-miterlimit="10"/>
<path d="M32 1582H52" stroke="white" stroke-width="2" stroke-miterlimit="10" stroke-linecap="round" stroke-linejoin="round"/>
<path d="M4 1582H24" stroke="#BDBEBE" stroke-width="2" stroke-miterlimit="10" stroke-linecap="round" stroke-linejoin="round"/>
<path d="M32 1554H52" stroke="white" stroke-width="2" stroke-miterlimit="10" stroke-linecap="round" stroke-linejoin="round"/>
<path d="M42 1544V1564" stroke="white" stroke-width="2" stroke-miterlimit="10" stroke-linecap="round" stroke-linejoin="round"/>
<path d="M4 1554H24" stroke="#BDBEBE" stroke-width="2" stroke-miterlimit="10" stroke-linecap="round" stroke-linejoin="round"/>
<path d="M14 1544V1564" stroke="#BDBEBE" stroke-width="2" stroke-miterlimit="10" stroke-linecap="round" stroke-linejoin="round"/>
<path d="M33 1526L39 1532L51 1520" stroke="white" stroke-width="4" stroke-miterlimit="10" stroke-linecap="round" stroke-linejoin="round"/>
<path d="M5 1526L11 1532L23 1520" stroke="white" stroke-width="2" stroke-miterlimit="10" stroke-linecap="round" stroke-linejoin="round"/>
<path d="M22 1494H6C5.4 1494 5 1493.6 5 1493C5 1492.4 5.4 1492 6 1492H22C22.6 1492 23 1492.4 23 1493C23 1493.6 22.6 1494 22 1494Z" fill="white"/>
<path d="M22 1499H6C5.4 1499 5 1498.6 5 1498C5 1497.4 5.4 1497 6 1497H22C22.6 1497 23 1497.4 23 1498C23 1498.6 22.6 1499 22 1499Z" fill="white"/>
<path d="M22 1504H6C5.4 1504 5 1503.6 5 1503C5 1502.4 5.4 1502 6 1502H22C22.6 1502 23 1502.4 23 1503C23 1503.6 22.6 1504 22 1504Z" fill="white"/>
<path d="M42.1001 1458C35.5001 1458 30.1001 1463.4 30.1001 1470C30.1001 1476.6 35.5001 1482 42.1001 1482C48.7001 1482 54.1001 1476.6 54.1001 1470C54.1001 1463.4 48.7001 1458 42.1001 1458ZM46.6001 1472.5C47.2001 1473.1 47.2001 1474 46.6001 1474.6C46.3001 1474.9 45.9001 1475 45.5001 1475C45.1001 1475 44.7001 1474.9 44.4001 1474.6L41.9001 1472.1L39.4001 1474.6C39.1001 1474.9 38.7001 1475 38.3001 1475C37.9001 1475 37.5001 1474.9 37.2001 1474.6C36.6001 1474 36.6001 1473.1 37.2001 1472.5L39.7001 1470L37.2001 1467.5C36.6001 1466.9 36.6001 1466 37.2001 1465.4C37.8001 1464.8 38.7001 1464.8 39.3001 1465.4L41.8001 1467.9L44.3001 1465.4C44.9001 1464.8 45.8001 1464.8 46.4001 1465.4C47.0001 1466 47.0001 1466.9 46.4001 1467.5L43.9001 1470L46.6001 1472.5Z" fill="white"/>
<path d="M13.8 1461C18.8 1461 22.8 1465 22.8 1470C22.8 1475 18.8 1479 13.8 1479C8.80005 1479 4.80005 1475 4.80005 1470C4.80005 1465 8.80005 1461 13.8 1461ZM13.8 1458C7.20005 1458 1.80005 1463.4 1.80005 1470C1.80005 1476.6 7.20005 1482 13.8 1482C20.4 1482 25.8 1476.6 25.8 1470C25.8 1463.4 20.4 1458 13.8 1458Z" fill="#BDBEBE"/>
<path d="M10.3 1466.5L17.3 1473.5" stroke="#BDBEBE" stroke-width="3" stroke-miterlimit="10" stroke-linecap="round" stroke-linejoin="round"/>
<path d="M10.3 1473.5L17.3 1466.5" stroke="#BDBEBE" stroke-width="3" stroke-miterlimit="10" stroke-linecap="round" stroke-linejoin="round"/>
<path d="M14 1453C8.5 1453 4 1448.5 4 1443C4 1437.5 8.5 1433 14 1433C19.5 1433 24 1437.5 24 1443C24 1448.5 19.5 1453 14 1453ZM14 1435C9.6 1435 6 1438.6 6 1443C6 1447.4 9.6 1451 14 1451C18.4 1451 22 1447.4 22 1443C22 1438.6 18.4 1435 14 1435Z" fill="#E2231A"/>
<path d="M23.2 1436.3C22.9 1436.3 22.6 1436.2 22.4 1435.9C21.2 1434.4 19.6 1433.3 17.7 1432.6C17.2 1432.4 16.9 1431.8 17.1 1431.3C17.3 1430.8 17.9 1430.5 18.4 1430.7C20.5 1431.5 22.5 1432.8 23.9 1434.6C24.3 1435 24.2 1435.7 23.8 1436C23.6 1436.2 23.4 1436.3 23.2 1436.3Z" fill="#E2231A"/>
<path d="M4.8001 1436.3C4.6001 1436.3 4.3001 1436.2 4.2001 1436.1C3.8001 1435.7 3.7001 1435.1 4.1001 1434.7C5.6001 1433 7.5001 1431.6 9.6001 1430.8C10.1001 1430.6 10.7001 1430.9 10.9001 1431.4C11.1001 1431.9 10.8001 1432.5 10.3001 1432.7C8.5001 1433.4 6.9001 1434.5 5.6001 1436C5.4001 1436.2 5.1001 1436.3 4.8001 1436.3Z" fill="#E2231A"/>
<path d="M17 1447C16.7 1447 16.5 1446.9 16.3 1446.7L13.3 1443.7C13.1 1443.5 13 1443.3 13 1443V1437C13 1436.4 13.4 1436 14 1436C14.6 1436 15 1436.4 15 1437V1442.6L17.7 1445.3C18.1 1445.7 18.1 1446.3 17.7 1446.7C17.5 1446.9 17.3 1447 17 1447Z" fill="#E2231A"/>
<path d="M48 1290H36C32.7 1290 30 1292.7 30 1296V1308C30 1311.3 32.7 1314 36 1314H48C51.3 1314 54 1311.3 54 1308V1296C54 1292.7 51.3 1290 48 1290ZM49 1309H35C34.4 1309 34 1308.6 34 1308C34 1307.4 34.4 1307 35 1307H49C49.6 1307 50 1307.4 50 1308C50 1308.6 49.6 1309 49 1309ZM49 1305H35C34.4 1305 34 1304.6 34 1304C34 1303.4 34.4 1303 35 1303H49C49.6 1303 50 1303.4 50 1304C50 1304.6 49.6 1305 49 1305ZM49 1301H35C34.4 1301 34 1300.6 34 1300C34 1299.4 34.4 1299 35 1299H49C49.6 1299 50 1299.4 50 1300C50 1300.6 49.6 1301 49 1301ZM49 1297H35C34.4 1297 34 1296.6 34 1296C34 1295.4 34.4 1295 35 1295H49C49.6 1295 50 1295.4 50 1296C50 1296.6 49.6 1297 49 1297Z" fill="white"/>
<path d="M20 1313H8C5.2 1313 3 1310.8 3 1308V1296C3 1293.2 5.2 1291 8 1291H20C22.8 1291 25 1293.2 25 1296V1308C25 1310.8 22.8 1313 20 1313Z" stroke="white" stroke-width="2" stroke-miterlimit="10" stroke-linecap="round" stroke-linejoin="round"/>
<path d="M7 1300H21" stroke="white" stroke-width="2" stroke-miterlimit="10" stroke-linecap="round" stroke-linejoin="round"/>
<path d="M7 1304H21" stroke="white" stroke-width="2" stroke-miterlimit="10" stroke-linecap="round" stroke-linejoin="round"/>
<path d="M7 1308H21" stroke="white" stroke-width="2" stroke-miterlimit="10" stroke-linecap="round" stroke-linejoin="round"/>
<path d="M7 1296H21" stroke="white" stroke-width="2" stroke-miterlimit="10" stroke-linecap="round" stroke-linejoin="round"/>
<path d="M35 1263H49V1270L45 1274L49 1278V1285H35V1278L39 1274L35 1270V1263Z" stroke="white" stroke-width="2" stroke-miterlimit="10" stroke-linecap="round" stroke-linejoin="round"/>
<path d="M38 1282V1280L42 1277L46 1280V1282H38Z" stroke="white" stroke-width="2" stroke-miterlimit="10" stroke-linecap="round" stroke-linejoin="round"/>
<path d="M46 1268V1269L42 1272L38 1269V1268H46Z" stroke="white" stroke-width="2" stroke-miterlimit="10" stroke-linecap="round" stroke-linejoin="round"/>
<path d="M7 1263H21V1270L17 1274L21 1278V1285H7V1278L11 1274L7 1270V1263Z" stroke="#BDBEBE" stroke-width="2" stroke-miterlimit="10" stroke-linecap="round" stroke-linejoin="round"/>
<path d="M10 1282V1280L14 1277L18 1280V1282H10Z" stroke="#BDBEBE" stroke-width="2" stroke-miterlimit="10" stroke-linecap="round" stroke-linejoin="round"/>
<path d="M18 1268V1269L14 1272L10 1269V1268H18Z" stroke="#BDBEBE" stroke-width="2" stroke-miterlimit="10" stroke-linecap="round" stroke-linejoin="round"/>
<path d="M7 1254C6.7 1254 6.5 1253.9 6.3 1253.7C5.9 1253.3 5.9 1252.7 6.3 1252.3L20.3 1238.3C20.7 1237.9 21.3 1237.9 21.7 1238.3C22.1 1238.7 22.1 1239.3 21.7 1239.7L7.7 1253.7C7.5 1253.9 7.3 1254 7 1254Z" fill="white"/>
<path d="M21 1254C20.7 1254 20.5 1253.9 20.3 1253.7L6.3 1239.7C5.9 1239.3 5.9 1238.7 6.3 1238.3C6.7 1237.9 7.3 1237.9 7.7 1238.3L21.7 1252.3C22.1 1252.7 22.1 1253.3 21.7 1253.7C21.5 1253.9 21.3 1254 21 1254Z" fill="white"/>
<path d="M33 1218L39 1224L51 1212" stroke="#BDBEBE" stroke-width="4" stroke-miterlimit="10" stroke-linecap="round" stroke-linejoin="round"/>
<path d="M5 1218L11 1224L23 1212" stroke="#1F2123" stroke-width="4" stroke-miterlimit="10" stroke-linecap="round" stroke-linejoin="round"/>
<path d="M33 1190L39 1196L51 1184" stroke="#BDBEBE" stroke-width="2" stroke-miterlimit="10" stroke-linecap="round" stroke-linejoin="round"/>
<path d="M5 1190L11 1196L23 1184" stroke="#1F2123" stroke-width="2" stroke-miterlimit="10" stroke-linecap="round" stroke-linejoin="round"/>
<path d="M48 1170L40 1162L48 1154" stroke="white" stroke-width="2" stroke-miterlimit="10" stroke-linecap="round" stroke-linejoin="round"/>
<path d="M36 1170V1154" stroke="white" stroke-width="2" stroke-miterlimit="10" stroke-linecap="round" stroke-linejoin="round"/>
<g opacity="0.7">
<path d="M20 1170L12 1162L20 1154" stroke="white" stroke-width="2" stroke-miterlimit="10" stroke-linecap="round" stroke-linejoin="round"/>
<path d="M8 1170V1154" stroke="white" stroke-width="2" stroke-miterlimit="10" stroke-linecap="round" stroke-linejoin="round"/>
</g>
<path d="M36 1126L44 1134L36 1142" stroke="white" stroke-width="2" stroke-miterlimit="10" stroke-linecap="round" stroke-linejoin="round"/>
<path d="M48 1126V1142" stroke="white" stroke-width="2" stroke-miterlimit="10" stroke-linecap="round" stroke-linejoin="round"/>
<g opacity="0.7">
<path d="M8 1126L16 1134L8 1142" stroke="white" stroke-width="2" stroke-miterlimit="10" stroke-linecap="round" stroke-linejoin="round"/>
<path d="M20 1126V1142" stroke="white" stroke-width="2" stroke-miterlimit="10" stroke-linecap="round" stroke-linejoin="round"/>
</g>
<g opacity="0.7">
<path d="M20 1422L12 1414L20 1406" stroke="white" stroke-width="2" stroke-miterlimit="10" stroke-linecap="round" stroke-linejoin="round"/>
<path d="M8 1422V1406" stroke="white" stroke-width="2" stroke-miterlimit="10" stroke-linecap="round" stroke-linejoin="round"/>
</g>
<g opacity="0.7">
<path d="M8 1378L16 1386L8 1394" stroke="white" stroke-width="2" stroke-miterlimit="10" stroke-linecap="round" stroke-linejoin="round"/>
<path d="M20 1378V1394" stroke="white" stroke-width="2" stroke-miterlimit="10" stroke-linecap="round" stroke-linejoin="round"/>
</g>
<path d="M34.9 1113C33.1 1111.2 32 1108.7 32 1106C32 1100.5 36.5 1096 42 1096C47.5 1096 52 1100.5 52 1106C52 1111.5 47.5 1116 42 1116C41 1116 39.9 1115.8 39 1115.5" stroke="white" stroke-width="2" stroke-miterlimit="10" stroke-linecap="round" stroke-linejoin="round"/>
<path d="M42 1100.5V1106L45 1109.2" stroke="white" stroke-width="2" stroke-miterlimit="10" stroke-linecap="round" stroke-linejoin="round"/>
<path d="M36 1109L35 1113L31 1112" stroke="white" stroke-width="2" stroke-miterlimit="10" stroke-linecap="round" stroke-linejoin="round"/>
<path d="M6.9 1113C5.1 1111.2 4 1108.7 4 1106C4 1100.5 8.5 1096 14 1096C19.5 1096 24 1100.5 24 1106C24 1111.5 19.5 1116 14 1116C13 1116 11.9 1115.8 11 1115.5" stroke="#BDBEBE" stroke-width="2" stroke-miterlimit="10" stroke-linecap="round" stroke-linejoin="round"/>
<path d="M14 1100.5V1106L17 1109.2" stroke="#BDBEBE" stroke-width="2" stroke-miterlimit="10" stroke-linecap="round" stroke-linejoin="round"/>
<path d="M8 1109L7 1113L3 1112" stroke="#BDBEBE" stroke-width="2" stroke-miterlimit="10" stroke-linecap="round" stroke-linejoin="round"/>
<path d="M53 1085H31C30.4 1085 30 1084.6 30 1084V1072C30 1071.4 30.4 1071 31 1071H53C53.6 1071 54 1071.4 54 1072V1084C54 1084.6 53.6 1085 53 1085ZM32 1083H52V1073H32V1083Z" fill="white"/>
<g opacity="0.7">
<path d="M25 1085H3C2.4 1085 2 1084.6 2 1084V1072C2 1071.4 2.4 1071 3 1071H25C25.6 1071 26 1071.4 26 1072V1084C26 1084.6 25.6 1085 25 1085ZM4 1083H24V1073H4V1083Z" fill="white"/>
</g>
<path d="M35 1049H31C30.4 1049 30 1048.6 30 1048V1044C30 1043.4 30.4 1043 31 1043H35C35.6 1043 36 1043.4 36 1044V1048C36 1048.6 35.6 1049 35 1049ZM32 1047H34V1045H32V1047Z" fill="white"/>
<path d="M53 1049H49C48.4 1049 48 1048.6 48 1048V1044C48 1043.4 48.4 1043 49 1043H53C53.6 1043 54 1043.4 54 1044V1048C54 1048.6 53.6 1049 53 1049ZM50 1047H52V1045H50V1047Z" fill="white"/>
<path d="M44 1049H40C39.4 1049 39 1048.6 39 1048V1044C39 1043.4 39.4 1043 40 1043H44C44.6 1043 45 1043.4 45 1044V1048C45 1048.6 44.6 1049 44 1049ZM41 1047H43V1045H41V1047Z" fill="white"/>
<path d="M35 1057H31C30.4 1057 30 1056.6 30 1056V1052C30 1051.4 30.4 1051 31 1051H35C35.6 1051 36 1051.4 36 1052V1056C36 1056.6 35.6 1057 35 1057ZM32 1055H34V1053H32V1055Z" fill="white"/>
<path d="M53 1057H49C48.4 1057 48 1056.6 48 1056V1052C48 1051.4 48.4 1051 49 1051H53C53.6 1051 54 1051.4 54 1052V1056C54 1056.6 53.6 1057 53 1057ZM50 1055H52V1053H50V1055Z" fill="white"/>
<path d="M44 1057H40C39.4 1057 39 1056.6 39 1056V1052C39 1051.4 39.4 1051 40 1051H44C44.6 1051 45 1051.4 45 1052V1056C45 1056.6 44.6 1057 44 1057ZM41 1055H43V1053H41V1055Z" fill="white"/>
<g opacity="0.7">
<path d="M7 1049H3C2.4 1049 2 1048.6 2 1048V1044C2 1043.4 2.4 1043 3 1043H7C7.6 1043 8 1043.4 8 1044V1048C8 1048.6 7.6 1049 7 1049ZM4 1047H6V1045H4V1047Z" fill="white"/>
<path d="M25 1049H21C20.4 1049 20 1048.6 20 1048V1044C20 1043.4 20.4 1043 21 1043H25C25.6 1043 26 1043.4 26 1044V1048C26 1048.6 25.6 1049 25 1049ZM22 1047H24V1045H22V1047Z" fill="white"/>
<path d="M16 1049H12C11.4 1049 11 1048.6 11 1048V1044C11 1043.4 11.4 1043 12 1043H16C16.6 1043 17 1043.4 17 1044V1048C17 1048.6 16.6 1049 16 1049ZM13 1047H15V1045H13V1047Z" fill="white"/>
<path d="M7 1057H3C2.4 1057 2 1056.6 2 1056V1052C2 1051.4 2.4 1051 3 1051H7C7.6 1051 8 1051.4 8 1052V1056C8 1056.6 7.6 1057 7 1057ZM4 1055H6V1053H4V1055Z" fill="white"/>
<path d="M25 1057H21C20.4 1057 20 1056.6 20 1056V1052C20 1051.4 20.4 1051 21 1051H25C25.6 1051 26 1051.4 26 1052V1056C26 1056.6 25.6 1057 25 1057ZM22 1055H24V1053H22V1055Z" fill="white"/>
<path d="M16 1057H12C11.4 1057 11 1056.6 11 1056V1052C11 1051.4 11.4 1051 12 1051H16C16.6 1051 17 1051.4 17 1052V1056C17 1056.6 16.6 1057 16 1057ZM13 1055H15V1053H13V1055Z" fill="white"/>
</g>
<path d="M42 1033C36.5 1033 32 1028.5 32 1023C32 1017.5 36.5 1013 42 1013C47.5 1013 52 1017.5 52 1023C52 1028.5 47.5 1033 42 1033ZM42 1015C37.6 1015 34 1018.6 34 1023C34 1027.4 37.6 1031 42 1031C46.4 1031 50 1027.4 50 1023C50 1018.6 46.4 1015 42 1015Z" fill="white"/>
<path d="M51.2 1016.3C50.9 1016.3 50.6 1016.2 50.4 1015.9C49.2 1014.4 47.6 1013.3 45.7 1012.6C45.2 1012.4 44.9 1011.8 45.1 1011.3C45.3 1010.8 45.9 1010.5 46.4 1010.7C48.5 1011.5 50.5 1012.8 51.9 1014.6C52.3 1015 52.2 1015.7 51.8 1016C51.6 1016.2 51.4 1016.3 51.2 1016.3Z" fill="white"/>
<path d="M32.8001 1016.3C32.6001 1016.3 32.3001 1016.2 32.2001 1016.1C31.8001 1015.7 31.7001 1015.1 32.1001 1014.7C33.6001 1013 35.5001 1011.6 37.6001 1010.8C38.1001 1010.6 38.7001 1010.9 38.9001 1011.4C39.1001 1011.9 38.8001 1012.5 38.3001 1012.7C36.5001 1013.4 34.9001 1014.5 33.6001 1016C33.4001 1016.2 33.1001 1016.3 32.8001 1016.3Z" fill="white"/>
<path d="M45 1027C44.7 1027 44.5 1026.9 44.3 1026.7L41.3 1023.7C41.1 1023.5 41 1023.3 41 1023V1017C41 1016.4 41.4 1016 42 1016C42.6 1016 43 1016.4 43 1017V1022.6L45.7 1025.3C46.1 1025.7 46.1 1026.3 45.7 1026.7C45.5 1026.9 45.3 1027 45 1027Z" fill="white"/>
<path d="M14 1033C8.5 1033 4 1028.5 4 1023C4 1017.5 8.5 1013 14 1013C19.5 1013 24 1017.5 24 1023C24 1028.5 19.5 1033 14 1033ZM14 1015C9.6 1015 6 1018.6 6 1023C6 1027.4 9.6 1031 14 1031C18.4 1031 22 1027.4 22 1023C22 1018.6 18.4 1015 14 1015Z" fill="#BDBEBE"/>
<path d="M23.2 1016.3C22.9 1016.3 22.6 1016.2 22.4 1015.9C21.2 1014.4 19.6 1013.3 17.7 1012.6C17.2 1012.4 16.9 1011.8 17.1 1011.3C17.3 1010.8 17.9 1010.5 18.4 1010.7C20.5 1011.5 22.5 1012.8 23.9 1014.6C24.3 1015 24.2 1015.7 23.8 1016C23.6 1016.2 23.4 1016.3 23.2 1016.3Z" fill="#BDBEBE"/>
<path d="M4.8001 1016.3C4.6001 1016.3 4.3001 1016.2 4.2001 1016.1C3.8001 1015.7 3.7001 1015.1 4.1001 1014.7C5.6001 1013 7.5001 1011.6 9.6001 1010.8C10.1001 1010.6 10.7001 1010.9 10.9001 1011.4C11.1001 1011.9 10.8001 1012.5 10.3001 1012.7C8.5001 1013.4 6.9001 1014.5 5.6001 1016C5.4001 1016.2 5.1001 1016.3 4.8001 1016.3Z" fill="#BDBEBE"/>
<path d="M17 1027C16.7 1027 16.5 1026.9 16.3 1026.7L13.3 1023.7C13.1 1023.5 13 1023.3 13 1023V1017C13 1016.4 13.4 1016 14 1016C14.6 1016 15 1016.4 15 1017V1022.6L17.7 1025.3C18.1 1025.7 18.1 1026.3 17.7 1026.7C17.5 1026.9 17.3 1027 17 1027Z" fill="#BDBEBE"/>
<path d="M45 1003C44.7 1003 44.5 1002.9 44.3 1002.7L36.3 994.7C35.9 994.3 35.9 993.7 36.3 993.3L44.3 985.3C44.7 984.9 45.3 984.9 45.7 985.3C46.1 985.7 46.1 986.3 45.7 986.7L38.4 994L45.7 1001.3C46.1 1001.7 46.1 1002.3 45.7 1002.7C45.5 1002.9 45.3 1003 45 1003Z" fill="white"/>
<g opacity="0.7">
<path d="M17 1003C16.7 1003 16.5 1002.9 16.3 1002.7L8.3 994.7C7.9 994.3 7.9 993.7 8.3 993.3L16.3 985.3C16.7 984.9 17.3 984.9 17.7 985.3C18.1 985.7 18.1 986.3 17.7 986.7L10.4 994L17.7 1001.3C18.1 1001.7 18.1 1002.3 17.7 1002.7C17.5 1002.9 17.3 1003 17 1003Z" fill="white"/>
</g>
<path d="M38 975C37.7 975 37.5 974.9 37.3 974.7C36.9 974.3 36.9 973.7 37.3 973.3L44.6 966L37.3 958.7C36.9 958.3 36.9 957.7 37.3 957.3C37.7 956.9 38.3 956.9 38.7 957.3L46.7 965.3C47.1 965.7 47.1 966.3 46.7 966.7L38.7 974.7C38.5 974.9 38.3 975 38 975Z" fill="white"/>
<g opacity="0.7">
<path d="M10 975C9.7 975 9.5 974.9 9.3 974.7C8.9 974.3 8.9 973.7 9.3 973.3L16.6 966L9.3 958.7C8.9 958.3 8.9 957.7 9.3 957.3C9.7 956.9 10.3 956.9 10.7 957.3L18.7 965.3C19.1 965.7 19.1 966.3 18.7 966.7L10.7 974.7C10.5 974.9 10.3 975 10 975Z" fill="white"/>
</g>
<g opacity="0.7">
<path d="M18 947C17.7 947 17.5 946.9 17.3 946.7L9.3 938.7C8.9 938.3 8.9 937.7 9.3 937.3L17.3 929.3C17.7 928.9 18.3 928.9 18.7 929.3C19.1 929.7 19.1 930.3 18.7 930.7L11.4 938L18.7 945.3C19.1 945.7 19.1 946.3 18.7 946.7C18.5 946.9 18.3 947 18 947Z" fill="white"/>
</g>
<g opacity="0.7">
<path d="M11 919C10.7 919 10.5 918.9 10.3 918.7C9.9 918.3 9.9 917.7 10.3 917.3L17.6 910L10.3 902.7C9.9 902.3 9.9 901.7 10.3 901.3C10.7 900.9 11.3 900.9 11.7 901.3L19.7 909.3C20.1 909.7 20.1 910.3 19.7 910.7L11.7 918.7C11.5 918.9 11.3 919 11 919Z" fill="white"/>
</g>
<path d="M35 890C34.7 890 34.5 889.9 34.3 889.7C33.9 889.3 33.9 888.7 34.3 888.3L48.3 874.3C48.7 873.9 49.3 873.9 49.7 874.3C50.1 874.7 50.1 875.3 49.7 875.7L35.7 889.7C35.5 889.9 35.3 890 35 890Z" fill="white"/>
<path d="M49 890C48.7 890 48.5 889.9 48.3 889.7L34.3 875.7C33.9 875.3 33.9 874.7 34.3 874.3C34.7 873.9 35.3 873.9 35.7 874.3L49.7 888.3C50.1 888.7 50.1 889.3 49.7 889.7C49.5 889.9 49.3 890 49 890Z" fill="white"/>
<path d="M7 890C6.7 890 6.5 889.9 6.3 889.7C5.9 889.3 5.9 888.7 6.3 888.3L20.3 874.3C20.7 873.9 21.3 873.9 21.7 874.3C22.1 874.7 22.1 875.3 21.7 875.7L7.7 889.7C7.5 889.9 7.3 890 7 890Z" fill="#BDBEBE"/>
<path d="M21 890C20.7 890 20.5 889.9 20.3 889.7L6.3 875.7C5.9 875.3 5.9 874.7 6.3 874.3C6.7 873.9 7.3 873.9 7.7 874.3L21.7 888.3C22.1 888.7 22.1 889.3 21.7 889.7C21.5 889.9 21.3 890 21 890Z" fill="#BDBEBE"/>
<path d="M40 860C39.7 860 39.5 859.9 39.3 859.7L32.3 852.7C31.9 852.3 31.9 851.7 32.3 851.3C32.7 850.9 33.3 850.9 33.7 851.3L40 857.6L50.3 847.3C50.7 846.9 51.3 846.9 51.7 847.3C52.1 847.7 52.1 848.3 51.7 848.7L40.7 859.7C40.5 859.9 40.3 860 40 860Z" fill="white"/>
<path d="M12 860C11.7 860 11.5 859.9 11.3 859.7L4.3 852.7C3.9 852.3 3.9 851.7 4.3 851.3C4.7 850.9 5.3 850.9 5.7 851.3L12 857.6L22.3 847.3C22.7 846.9 23.3 846.9 23.7 847.3C24.1 847.7 24.1 848.3 23.7 848.7L12.7 859.7C12.5 859.9 12.3 860 12 860Z" fill="#BDBEBE"/>
<path d="M42 831C41.7 831 41.5 830.9 41.3 830.7L33.3 822.7C32.9 822.3 32.9 821.7 33.3 821.3C33.7 820.9 34.3 820.9 34.7 821.3L42 828.6L49.3 821.3C49.7 820.9 50.3 820.9 50.7 821.3C51.1 821.7 51.1 822.3 50.7 822.7L42.7 830.7C42.5 830.9 42.3 831 42 831Z" fill="white"/>
<path d="M14 831C13.7 831 13.5 830.9 13.3 830.7L5.3 822.7C4.9 822.3 4.9 821.7 5.3 821.3C5.7 820.9 6.3 820.9 6.7 821.3L14 828.6L21.3 821.3C21.7 820.9 22.3 820.9 22.7 821.3C23.1 821.7 23.1 822.3 22.7 822.7L14.7 830.7C14.5 830.9 14.3 831 14 831Z" fill="#BDBEBE"/>
<path d="M50 803C49.7 803 49.5 802.9 49.3 802.7L42 795.4L34.7 802.7C34.3 803.1 33.7 803.1 33.3 802.7C32.9 802.3 32.9 801.7 33.3 801.3L41.3 793.3C41.7 792.9 42.3 792.9 42.7 793.3L50.7 801.3C51.1 801.7 51.1 802.3 50.7 802.7C50.5 802.9 50.3 803 50 803Z" fill="white"/>
<path d="M22 803C21.7 803 21.5 802.9 21.3 802.7L14 795.4L6.7 802.7C6.3 803.1 5.7 803.1 5.3 802.7C4.9 802.3 4.9 801.7 5.3 801.3L13.3 793.3C13.7 792.9 14.3 792.9 14.7 793.3L22.7 801.3C23.1 801.7 23.1 802.3 22.7 802.7C22.5 802.9 22.3 803 22 803Z" fill="#BDBEBE"/>
<path d="M46 779C45.7 779 45.5 778.9 45.3 778.7L37.3 770.7C36.9 770.3 36.9 769.7 37.3 769.3L45.3 761.3C45.7 760.9 46.3 760.9 46.7 761.3C47.1 761.7 47.1 762.3 46.7 762.7L39.4 770L46.7 777.3C47.1 777.7 47.1 778.3 46.7 778.7C46.5 778.9 46.3 779 46 779Z" fill="white"/>
<g opacity="0.7">
<path d="M18 779C17.7 779 17.5 778.9 17.3 778.7L9.3 770.7C8.9 770.3 8.9 769.7 9.3 769.3L17.3 761.3C17.7 760.9 18.3 760.9 18.7 761.3C19.1 761.7 19.1 762.3 18.7 762.7L11.4 770L18.7 777.3C19.1 777.7 19.1 778.3 18.7 778.7C18.5 778.9 18.3 779 18 779Z" fill="white"/>
</g>
<path d="M38 751C37.7 751 37.5 750.9 37.3 750.7C36.9 750.3 36.9 749.7 37.3 749.3L44.6 742L37.3 734.7C36.9 734.3 36.9 733.7 37.3 733.3C37.7 732.9 38.3 732.9 38.7 733.3L46.7 741.3C47.1 741.7 47.1 742.3 46.7 742.7L38.7 750.7C38.5 750.9 38.3 751 38 751Z" fill="white"/>
<g opacity="0.7">
<path d="M10 751C9.7 751 9.5 750.9 9.3 750.7C8.9 750.3 8.9 749.7 9.3 749.3L16.6 742L9.3 734.7C8.9 734.3 8.9 733.7 9.3 733.3C9.7 732.9 10.3 732.9 10.7 733.3L18.7 741.3C19.1 741.7 19.1 742.3 18.7 742.7L10.7 750.7C10.5 750.9 10.3 751 10 751Z" fill="white"/>
</g>
<path d="M51 724H33C32.4 724 32 723.6 32 723V705C32 704.4 32.4 704 33 704H41C41.6 704 42 704.4 42 705C42 705.6 41.6 706 41 706H34V722H50V715C50 714.4 50.4 714 51 714C51.6 714 52 714.4 52 715V723C52 723.6 51.6 724 51 724Z" fill="white"/>
<path d="M52.3 708.7L43.3 717.7C43.1 717.9 42.9 718 42.6 718H39C38.4 718 38 717.6 38 717V713.4C38 713.1 38.1 712.9 38.3 712.7L47.3 703.7C47.7 703.3 48.3 703.3 48.7 703.7L52.3 707.3C52.7 707.7 52.7 708.3 52.3 708.7Z" fill="white"/>
<path d="M23 724H5C4.4 724 4 723.6 4 723V705C4 704.4 4.4 704 5 704H13C13.6 704 14 704.4 14 705C14 705.6 13.6 706 13 706H6V722H22V715C22 714.4 22.4 714 23 714C23.6 714 24 714.4 24 715V723C24 723.6 23.6 724 23 724Z" fill="#BDBEBE"/>
<path d="M15 719H10C9.4 719 9 718.6 9 718V713C9 712.7 9.1 712.5 9.3 712.3L18.3 703.3C18.7 702.9 19.3 702.9 19.7 703.3L24.7 708.3C25.1 708.7 25.1 709.3 24.7 709.7L15.7 718.7C15.5 718.9 15.3 719 15 719ZM11 717H14.6L22.6 709L19 705.4L11 713.4V717Z" fill="#BDBEBE"/>
<path d="M53 686C53 692.1 48.1 697 42 697C35.9 697 31 692.1 31 686C31 679.9 35.9 675 42 675C48.1 675 53 679.9 53 686ZM48 685H43V680C43 679.4 42.6 679 42 679C41.4 679 41 679.4 41 680V685H36C35.4 685 35 685.4 35 686C35 686.6 35.4 687 36 687H41V692C41 692.6 41.4 693 42 693C42.6 693 43 692.6 43 692V687H48C48.6 687 49 686.6 49 686C49 685.4 48.6 685 48 685Z" fill="white"/>
<path d="M20 685H15V680C15 679.4 14.6 679 14 679C13.4 679 13 679.4 13 680V685H8C7.4 685 7 685.4 7 686C7 686.6 7.4 687 8 687H13V692C13 692.6 13.4 693 14 693C14.6 693 15 692.6 15 692V687H20C20.6 687 21 686.6 21 686C21 685.4 20.6 685 20 685Z" fill="#BDBEBE"/>
<path d="M14 675C7.9 675 3 679.9 3 686C3 692.1 7.9 697 14 697C20.1 697 25 692.1 25 686C25 679.9 20.1 675 14 675ZM14 695C9 695 5 691 5 686C5 681 9 677 14 677C19 677 23 681 23 686C23 691 19 695 14 695Z" fill="#BDBEBE"/>
<path d="M6 654H16C16.6 654 17 653.6 17 653C17 652.4 16.6 652 16 652H6C5.4 652 5 652.4 5 653C5 653.6 5.4 654 6 654Z" fill="#BDBEBE"/>
<path d="M6 659H12C12.6 659 13 658.6 13 658C13 657.4 12.6 657 12 657H6C5.4 657 5 657.4 5 658C5 658.6 5.4 659 6 659Z" fill="#BDBEBE"/>
<path d="M6 664H8C8.6 664 9 663.6 9 663C9 662.4 8.6 662 8 662H6C5.4 662 5 662.4 5 663C5 663.6 5.4 664 6 664Z" fill="#BDBEBE"/>
<path d="M16.9 661.5C16.5 661.1 15.9 661.1 15.5 661.5C15.1 661.9 15.1 662.5 15.5 662.9L18.3 665.7C18.4 665.8 18.5 665.9 18.6 665.9C18.7 666 18.9 666 19 666C19.1 666 19.3 666 19.4 665.9C19.5 665.8 19.6 665.8 19.7 665.7L22.5 662.9C22.9 662.5 22.9 661.9 22.5 661.5C22.1 661.1 21.5 661.1 21.1 661.5L20 662.6V656C20 655.4 19.6 655 19 655C18.4 655 18 655.4 18 656V662.6L16.9 661.5Z" fill="#BDBEBE"/>
<path d="M26 648C26 647.4 25.6 647 25 647H3C2.4 647 2 647.4 2 648V668C2 668.6 2.4 669 3 669H25C25.6 669 26 668.6 26 668V648ZM24 667H4V649H24V667Z" fill="#BDBEBE"/>
<path d="M35 610C34.7 610 34.5 609.9 34.3 609.7C33.9 609.3 33.9 608.7 34.3 608.3L48.3 594.3C48.7 593.9 49.3 593.9 49.7 594.3C50.1 594.7 50.1 595.3 49.7 595.7L35.7 609.7C35.5 609.9 35.3 610 35 610Z" fill="white"/>
<path d="M49 610C48.7 610 48.5 609.9 48.3 609.7L34.3 595.7C33.9 595.3 33.9 594.7 34.3 594.3C34.7 593.9 35.3 593.9 35.7 594.3L49.7 608.3C50.1 608.7 50.1 609.3 49.7 609.7C49.5 609.9 49.3 610 49 610Z" fill="white"/>
<path d="M7 610C6.7 610 6.5 609.9 6.3 609.7C5.9 609.3 5.9 608.7 6.3 608.3L20.3 594.3C20.7 593.9 21.3 593.9 21.7 594.3C22.1 594.7 22.1 595.3 21.7 595.7L7.7 609.7C7.5 609.9 7.3 610 7 610Z" fill="white"/>
<path d="M21 610C20.7 610 20.5 609.9 20.3 609.7L6.3 595.7C5.9 595.3 5.9 594.7 6.3 594.3C6.7 593.9 7.3 593.9 7.7 594.3L21.7 608.3C22.1 608.7 22.1 609.3 21.7 609.7C21.5 609.9 21.3 610 21 610Z" fill="white"/>
<path d="M40 580C39.7 580 39.5 579.9 39.3 579.7L32.3 572.7C31.9 572.3 31.9 571.7 32.3 571.3C32.7 570.9 33.3 570.9 33.7 571.3L40 577.6L50.3 567.3C50.7 566.9 51.3 566.9 51.7 567.3C52.1 567.7 52.1 568.3 51.7 568.7L40.7 579.7C40.5 579.9 40.3 580 40 580Z" fill="white"/>
<path d="M12 580C11.7 580 11.5 579.9 11.3 579.7L4.3 572.7C3.9 572.3 3.9 571.7 4.3 571.3C4.7 570.9 5.3 570.9 5.7 571.3L12 577.6L22.3 567.3C22.7 566.9 23.3 566.9 23.7 567.3C24.1 567.7 24.1 568.3 23.7 568.7L12.7 579.7C12.5 579.9 12.3 580 12 580Z" fill="#BDBEBE"/>
<path d="M43 555C42.7 555 42.5 554.9 42.3 554.7L34.3 546.7C33.9 546.3 33.9 545.7 34.3 545.3L42.3 537.3C42.7 536.9 43.3 536.9 43.7 537.3C44.1 537.7 44.1 538.3 43.7 538.7L36.4 546L43.7 553.3C44.1 553.7 44.1 554.3 43.7 554.7C43.5 554.9 43.3 555 43 555Z" fill="white"/>
<path d="M48 547H36C35.4 547 35 546.6 35 546C35 545.4 35.4 545 36 545H48C48.6 545 49 545.4 49 546C49 546.6 48.6 547 48 547Z" fill="white"/>
<path d="M15 555C14.7 555 14.5 554.9 14.3 554.7L6.3 546.7C5.9 546.3 5.9 545.7 6.3 545.3L14.3 537.3C14.7 536.9 15.3 536.9 15.7 537.3C16.1 537.7 16.1 538.3 15.7 538.7L8.4 546L15.7 553.3C16.1 553.7 16.1 554.3 15.7 554.7C15.5 554.9 15.3 555 15 555Z" fill="#BDBEBE"/>
<path d="M20 547H8C7.4 547 7 546.6 7 546C7 545.4 7.4 545 8 545H20C20.6 545 21 545.4 21 546C21 546.6 20.6 547 20 547Z" fill="#BDBEBE"/>
<path d="M40 527C39.7 527 39.5 526.9 39.3 526.7C38.9 526.3 38.9 525.7 39.3 525.3L46.6 518L39.3 510.7C38.9 510.3 38.9 509.7 39.3 509.3C39.7 508.9 40.3 508.9 40.7 509.3L48.7 517.3C49.1 517.7 49.1 518.3 48.7 518.7L40.7 526.7C40.5 526.9 40.3 527 40 527Z" fill="white"/>
<path d="M47 519H35C34.4 519 34 518.6 34 518C34 517.4 34.4 517 35 517H47C47.6 517 48 517.4 48 518C48 518.6 47.6 519 47 519Z" fill="white"/>
<path d="M12 527C11.7 527 11.5 526.9 11.3 526.7C10.9 526.3 10.9 525.7 11.3 525.3L18.6 518L11.3 510.7C10.9 510.3 10.9 509.7 11.3 509.3C11.7 508.9 12.3 508.9 12.7 509.3L20.7 517.3C21.1 517.7 21.1 518.3 20.7 518.7L12.7 526.7C12.5 526.9 12.3 527 12 527Z" fill="#BDBEBE"/>
<path d="M19 519H7C6.4 519 6 518.6 6 518C6 517.4 6.4 517 7 517H19C19.6 517 20 517.4 20 518C20 518.6 19.6 519 19 519Z" fill="#BDBEBE"/>
<path d="M42 495C41.7 495 41.5 494.9 41.3 494.7L33.3 486.7C32.9 486.3 32.9 485.7 33.3 485.3C33.7 484.9 34.3 484.9 34.7 485.3L42 492.6L49.3 485.3C49.7 484.9 50.3 484.9 50.7 485.3C51.1 485.7 51.1 486.3 50.7 486.7L42.7 494.7C42.5 494.9 42.3 495 42 495Z" fill="white"/>
<path d="M14 495C13.7 495 13.5 494.9 13.3 494.7L5.3 486.7C4.9 486.3 4.9 485.7 5.3 485.3C5.7 484.9 6.3 484.9 6.7 485.3L14 492.6L21.3 485.3C21.7 484.9 22.3 484.9 22.7 485.3C23.1 485.7 23.1 486.3 22.7 486.7L14.7 494.7C14.5 494.9 14.3 495 14 495Z" fill="#BDBEBE"/>
<path d="M50 467C49.7 467 49.5 466.9 49.3 466.7L42 459.4L34.7 466.7C34.3 467.1 33.7 467.1 33.3 466.7C32.9 466.3 32.9 465.7 33.3 465.3L41.3 457.3C41.7 456.9 42.3 456.9 42.7 457.3L50.7 465.3C51.1 465.7 51.1 466.3 50.7 466.7C50.5 466.9 50.3 467 50 467Z" fill="white"/>
<path d="M22 467C21.7 467 21.5 466.9 21.3 466.7L14 459.4L6.7 466.7C6.3 467.1 5.7 467.1 5.3 466.7C4.9 466.3 4.9 465.7 5.3 465.3L13.3 457.3C13.7 456.9 14.3 456.9 14.7 457.3L22.7 465.3C23.1 465.7 23.1 466.3 22.7 466.7C22.5 466.9 22.3 467 22 467Z" fill="#BDBEBE"/>
<path d="M46 443C45.7 443 45.5 442.9 45.3 442.7L37.3 434.7C36.9 434.3 36.9 433.7 37.3 433.3L45.3 425.3C45.7 424.9 46.3 424.9 46.7 425.3C47.1 425.7 47.1 426.3 46.7 426.7L39.4 434L46.7 441.3C47.1 441.7 47.1 442.3 46.7 442.7C46.5 442.9 46.3 443 46 443Z" fill="white"/>
<g opacity="0.7">
<path d="M18 443C17.7 443 17.5 442.9 17.3 442.7L9.3 434.7C8.9 434.3 8.9 433.7 9.3 433.3L17.3 425.3C17.7 424.9 18.3 424.9 18.7 425.3C19.1 425.7 19.1 426.3 18.7 426.7L11.4 434L18.7 441.3C19.1 441.7 19.1 442.3 18.7 442.7C18.5 442.9 18.3 443 18 443Z" fill="white"/>
</g>
<path d="M39 415C38.7 415 38.5 414.9 38.3 414.7C37.9 414.3 37.9 413.7 38.3 413.3L45.6 406L38.3 398.7C37.9 398.3 37.9 397.7 38.3 397.3C38.7 396.9 39.3 396.9 39.7 397.3L47.7 405.3C48.1 405.7 48.1 406.3 47.7 406.7L39.7 414.7C39.5 414.9 39.3 415 39 415Z" fill="white"/>
<g opacity="0.7">
<path d="M11 415C10.7 415 10.5 414.9 10.3 414.7C9.9 414.3 9.9 413.7 10.3 413.3L17.6 406L10.3 398.7C9.9 398.3 9.9 397.7 10.3 397.3C10.7 396.9 11.3 396.9 11.7 397.3L19.7 405.3C20.1 405.7 20.1 406.3 19.7 406.7L11.7 414.7C11.5 414.9 11.3 415 11 415Z" fill="white"/>
</g>
<g opacity="0.7">
<path d="M18 1367C17.7 1367 17.5 1366.9 17.3 1366.7L9.3 1358.7C8.9 1358.3 8.9 1357.7 9.3 1357.3L17.3 1349.3C17.7 1348.9 18.3 1348.9 18.7 1349.3C19.1 1349.7 19.1 1350.3 18.7 1350.7L11.4 1358L18.7 1365.3C19.1 1365.7 19.1 1366.3 18.7 1366.7C18.5 1366.9 18.3 1367 18 1367Z" fill="white"/>
</g>
<g opacity="0.7">
<path d="M10 1339C9.7 1339 9.5 1338.9 9.3 1338.7C8.9 1338.3 8.9 1337.7 9.3 1337.3L16.6 1330L9.3 1322.7C8.9 1322.3 8.9 1321.7 9.3 1321.3C9.7 1320.9 10.3 1320.9 10.7 1321.3L18.7 1329.3C19.1 1329.7 19.1 1330.3 18.7 1330.7L10.7 1338.7C10.5 1338.9 10.3 1339 10 1339Z" fill="white"/>
</g>
<path d="M50 374H34C33.4 374 33 373.6 33 373C33 372.4 33.4 372 34 372H50C50.6 372 51 372.4 51 373C51 373.6 50.6 374 50 374Z" fill="white"/>
<path d="M50 379H34C33.4 379 33 378.6 33 378C33 377.4 33.4 377 34 377H50C50.6 377 51 377.4 51 378C51 378.6 50.6 379 50 379Z" fill="white"/>
<path d="M50 384H34C33.4 384 33 383.6 33 383C33 382.4 33.4 382 34 382H50C50.6 382 51 382.4 51 383C51 383.6 50.6 384 50 384Z" fill="white"/>
<path d="M22 374H6C5.4 374 5 373.6 5 373C5 372.4 5.4 372 6 372H22C22.6 372 23 372.4 23 373C23 373.6 22.6 374 22 374Z" fill="white"/>
<path d="M22 379H6C5.4 379 5 378.6 5 378C5 377.4 5.4 377 6 377H22C22.6 377 23 377.4 23 378C23 378.6 22.6 379 22 379Z" fill="white"/>
<path d="M22 384H6C5.4 384 5 383.6 5 383C5 382.4 5.4 382 6 382H22C22.6 382 23 382.4 23 383C23 383.6 22.6 384 22 384Z" fill="white"/>
<path d="M41.8999 339.1C35.7999 339.1 30.8999 344 30.8999 350.1C30.8999 356.2 35.7999 361.1 41.8999 361.1C47.9999 361.1 52.8999 356.2 52.8999 350.1C52.8999 344 47.9999 339.1 41.8999 339.1ZM39.9999 353C39.9999 353.6 39.5999 354 38.9999 354C38.3999 354 37.9999 353.6 37.9999 353V347C37.9999 346.4 38.3999 346 38.9999 346C39.5999 346 39.9999 346.4 39.9999 347V353ZM45.9999 353C45.9999 353.6 45.5999 354 44.9999 354C44.3999 354 43.9999 353.6 43.9999 353V347C43.9999 346.4 44.3999 346 44.9999 346C45.5999 346 45.9999 346.4 45.9999 347V353Z" fill="white"/>
<path d="M13.8999 361.1C7.7999 361.1 2.8999 356.2 2.8999 350.1C2.8999 344 7.7999 339.1 13.8999 339.1C19.9999 339.1 24.8999 344 24.8999 350.1C24.8999 356.2 19.9999 361.1 13.8999 361.1ZM13.8999 341.1C8.8999 341.1 4.8999 345.1 4.8999 350.1C4.8999 355.1 8.8999 359.1 13.8999 359.1C18.8999 359.1 22.8999 355.1 22.8999 350.1C22.8999 345.1 18.8999 341.1 13.8999 341.1Z" fill="#BDBEBE"/>
<path d="M11 354C10.4 354 10 353.6 10 353V347C10 346.4 10.4 346 11 346C11.6 346 12 346.4 12 347V353C12 353.6 11.6 354 11 354Z" fill="#BDBEBE"/>
<path d="M17 354C16.4 354 16 353.6 16 353V347C16 346.4 16.4 346 17 346C17.6 346 18 346.4 18 347V353C18 353.6 17.6 354 17 354Z" fill="#BDBEBE"/>
<path d="M41.8999 311.1C35.7999 311.1 30.8999 316 30.8999 322.1C30.8999 328.2 35.7999 333.1 41.8999 333.1C47.9999 333.1 52.8999 328.2 52.8999 322.1C52.8999 316 47.9999 311.1 41.8999 311.1ZM39.9999 326V318L45.9999 322.1L39.9999 326Z" fill="white"/>
<path d="M13.8999 333.1C7.7999 333.1 2.8999 328.2 2.8999 322.1C2.8999 316 7.7999 311.1 13.8999 311.1C19.9999 311.1 24.8999 316 24.8999 322.1C24.8999 328.2 19.9999 333.1 13.8999 333.1ZM13.8999 313.1C8.8999 313.1 4.8999 317.1 4.8999 322.1C4.8999 327.1 8.8999 331.1 13.8999 331.1C18.8999 331.1 22.8999 327.1 22.8999 322.1C22.8999 317.1 18.8999 313.1 13.8999 313.1Z" fill="#BDBEBE"/>
<path d="M12 327C11.8 327 11.7 327 11.5 326.9C11.2 326.7 11 326.4 11 326V318C11 317.6 11.2 317.3 11.5 317.1C11.8 316.9 12.2 316.9 12.5 317.2L18.5 321.3C18.8 321.5 18.9 321.8 18.9 322.1C18.9 322.4 18.7 322.7 18.4 322.9L12.4 326.8C12.4 326.9 12.2 327 12 327ZM13 319.9V324.2L16.2 322.1L13 319.9Z" fill="#BDBEBE"/>
<path d="M42 283C35.9 283 31 287.9 31 294C31 300.1 35.9 305 42 305C48.1 305 53 300.1 53 294C53 287.9 48.1 283 42 283ZM42.7 299.7C42.5 299.9 42.2 300 42 300C41.8 300 41.5 299.9 41.3 299.7C41.1 299.5 41 299.2 41 299C41 298.7 41.1 298.5 41.3 298.3C41.7 297.9 42.3 297.9 42.7 298.3C42.9 298.5 43 298.8 43 299C43 299.2 42.9 299.5 42.7 299.7ZM44.3 293.8C43.5 294.4 43 294.9 43 296C43 296.6 42.6 297 42 297C41.4 297 41 296.6 41 296C41 293.9 42.2 293 43.1 292.2C43.8 291.6 44 291.4 44 291C44 289.9 43.1 289 42 289C40.9 289 40 289.9 40 291C40 291.6 39.6 292 39 292C38.4 292 38 291.6 38 291C38 288.8 39.8 287 42 287C44.2 287 46 288.8 46 291C46 292.4 45.1 293.2 44.3 293.8Z" fill="white"/>
<path d="M14 305C7.9 305 3 300.1 3 294C3 287.9 7.9 283 14 283C20.1 283 25 287.9 25 294C25 300.1 20.1 305 14 305ZM14 285C9 285 5 289 5 294C5 299 9 303 14 303C19 303 23 299 23 294C23 289 19 285 14 285Z" fill="#BDBEBE"/>
<path d="M14 300C13.7 300 13.5 299.9 13.3 299.7C13.1 299.5 13 299.2 13 299C13 298.8 13.1 298.5 13.3 298.3C13.7 297.9 14.3 297.9 14.7 298.3C14.9 298.5 15 298.7 15 299C15 299.3 14.9 299.5 14.7 299.7C14.5 299.9 14.3 300 14 300Z" fill="#BDBEBE"/>
<path d="M14 297C13.4 297 13 296.6 13 296C13 293.9 14.2 293 15.1 292.2C15.8 291.6 16 291.4 16 291C16 289.9 15.1 289 14 289C12.9 289 12 289.9 12 291C12 291.6 11.6 292 11 292C10.4 292 10 291.6 10 291C10 288.8 11.8 287 14 287C16.2 287 18 288.8 18 291C18 292.4 17.1 293.2 16.3 293.8C15.5 294.4 15 294.9 15 296C15 296.6 14.6 297 14 297Z" fill="#BDBEBE"/>
<path d="M11 274C10.8 274 10.6 273.9 10.4 273.8L5.6 270H3C2.4 270 2 269.6 2 269V264C2 263.4 2.4 263 3 263H5.6L10.3 259.2C10.6 259 11 258.9 11.4 259.1C11.7 259.3 12 259.6 12 260V273C12 273.4 11.8 273.7 11.4 273.9C11.3 274 11.1 274 11 274ZM4 268H6C6.2 268 6.4 268.1 6.6 268.2L10 270.9V262.1L6.6 264.8C6.4 264.9 6.2 265 6 265H4V268Z" fill="#BDBEBE"/>
<path d="M21.0001 275C20.7001 275 20.4001 274.9 20.2001 274.6C19.9001 274.2 19.9001 273.5 20.4001 273.2C22.5001 271.6 23.6001 269.2 23.8001 266.7C23.9001 263.8 22.7001 260.9 20.4001 258.7C20.0001 258.3 20.0001 257.7 20.4001 257.3C20.8001 256.9 21.4001 256.9 21.8001 257.3C24.5001 259.9 26.0001 263.3 25.8001 266.8C25.7001 270 24.2001 272.8 21.7001 274.8C21.4001 274.9 21.2001 275 21.0001 275Z" fill="#BDBEBE"/>
<path d="M18 272C17.7 272 17.5 271.9 17.3 271.7C16.9 271.3 16.9 270.7 17.3 270.3C18.6 269 19.3 267.6 19.3 266C19.3 264.5 18.6 263 17.3 261.7C16.9 261.3 16.9 260.7 17.3 260.3C17.7 259.9 18.3 259.9 18.7 260.3C20.4 262 21.2 263.9 21.2 266C21.2 268.1 20.3 270.1 18.7 271.7C18.5 271.9 18.3 272 18 272Z" fill="#BDBEBE"/>
<path d="M15 269C14.7 269 14.5 268.9 14.3 268.7C13.9 268.3 13.9 267.7 14.3 267.3C14.9 266.7 14.9 265.5 14.2 264.7C13.8 264.3 13.9 263.6 14.3 263.3C14.7 262.9 15.4 263 15.7 263.4C17 265 17 267.4 15.6 268.7C15.5 268.9 15.3 269 15 269Z" fill="#BDBEBE"/>
<path d="M22 240C21.9 240 21.7 240 21.6 239.9L16.9 238L11.2 239.9C11 240 10.7 240 10.5 239.9L5.5 237.9C5.2 237.8 5 237.4 5 237V227C5 226.4 5.4 226 6 226H16C16.3 226 16.5 226.1 16.7 226.3L22.7 232.3C22.9 232.5 23 232.7 23 233V239C23 239.3 22.8 239.6 22.6 239.8C22.4 239.9 22.2 240 22 240ZM7 236.3L11 237.9L16.7 236C16.9 235.9 17.2 235.9 17.4 236L21 237.5V233.4L15.6 228H7V236.3Z" fill="#BDBEBE"/>
<path d="M22 250H6C5.4 250 5 249.6 5 249V241C5 240.7 5.2 240.4 5.4 240.2C5.7 240 6 240 6.3 240.1L11 242L16.7 240.1C16.9 240 17.2 240 17.4 240.1L22.4 242.1C22.8 242.3 23 242.6 23 243V249C23 249.6 22.6 250 22 250ZM7 248H21V243.7L17 242.1L11.3 244C11.1 244.1 10.8 244.1 10.6 244L7 242.5V248Z" fill="#BDBEBE"/>
<path d="M22 234H16C15.4 234 15 233.6 15 233V227C15 226.4 15.4 226 16 226C16.6 226 17 226.4 17 227V232H22C22.6 232 23 232.4 23 233C23 233.6 22.6 234 22 234Z" fill="#BDBEBE"/>
<path d="M22 222H6C5.4 222 5 221.6 5 221V199C5 198.4 5.4 198 6 198H16C16.3 198 16.5 198.1 16.7 198.3L22.7 204.3C22.9 204.5 23 204.7 23 205V221C23 221.6 22.6 222 22 222ZM7 220H21V205.4L15.6 200H7V220Z" fill="#BDBEBE"/>
<path d="M22 206H16C15.4 206 15 205.6 15 205V199C15 198.4 15.4 198 16 198C16.6 198 17 198.4 17 199V204H22C22.6 204 23 204.4 23 205C23 205.6 22.6 206 22 206Z" fill="#BDBEBE"/>
<path d="M42 178C44.2091 178 46 176.209 46 174C46 171.791 44.2091 170 42 170C39.7909 170 38 171.791 38 174C38 176.209 39.7909 178 42 178Z" fill="white"/>
<path d="M41.0001 179C40.5001 179 39.8001 179.4 39.4001 179.8L34.5001 187.1C34.2001 187.6 34.4001 188 34.9001 188.2L41.0001 189.7C41.5001 189.8 42.4001 189.8 42.9001 189.7L49.0001 188.2C49.5001 188.1 49.7001 187.6 49.4001 187.1L44.5001 179.8C44.2001 179.3 43.5001 179 42.9001 179H41.0001Z" fill="white"/>
<path d="M39 186C38.5 186 38.1 186.4 38.2 187L39.7 193.1C39.8 193.6 40.4 194.1 40.9 194.1H42.9C43.4 194.1 44 193.7 44.1 193.1L45.6 187C45.7 186.5 45.4 186 44.8 186H39Z" fill="white"/>
<g opacity="0.7">
<path d="M14 178C11.8 178 10 176.2 10 174C10 171.8 11.8 170 14 170C16.2 170 18 171.8 18 174C18 176.2 16.2 178 14 178ZM14 172C12.9 172 12 172.9 12 174C12 175.1 12.9 176 14 176C15.1 176 16 175.1 16 174C16 172.9 15.1 172 14 172Z" fill="white"/>
<path d="M16.0001 194H12.0001C11.5001 194 11.1001 193.7 11.0001 193.2L10.1001 188.8L6.80011 188C6.50011 187.9 6.20011 187.7 6.10011 187.4C6.00011 187.1 6.00011 186.7 6.20011 186.5L11.2001 179.5C11.4001 179.2 11.7001 179.1 12.0001 179.1H16.0001C16.3001 179.1 16.6001 179.3 16.8001 179.5L21.8001 186.5C22.0001 186.8 22.0001 187.1 21.9001 187.4C21.8001 187.7 21.5001 187.9 21.2001 188L17.8001 188.8L16.9001 193.2C16.9001 193.7 16.5001 194 16.0001 194ZM12.8001 192H15.2001L16.0001 187.8C16.1001 187.4 16.4001 187.1 16.7001 187L19.3001 186.4L15.5001 181H12.5001L8.70011 186.4L11.3001 187C11.7001 187.1 12.0001 187.4 12.0001 187.8L12.8001 192Z" fill="white"/>
</g>
<path d="M42 150C44.2091 150 46 148.209 46 146C46 143.791 44.2091 142 42 142C39.7909 142 38 143.791 38 146C38 148.209 39.7909 150 42 150Z" fill="white"/>
<path d="M39 158C38.5 158 38.1 158.4 38.2 159L39.7 165.1C39.8 165.6 40.4 166.1 40.9 166.1H42.9C43.4 166.1 44 165.7 44.1 165.1L45.6 159C45.7 158.5 45.4 158 44.8 158H39Z" fill="white"/>
<path d="M36 152C36 151.4 36.5 151 37 151H47C47.5 151 48 151.4 48 152V157C48 157.6 47.6 158.2 47.1 158.4L42.9 160.5C42.4 160.7 41.6 160.7 41.1 160.5L36.9 158.4C36.4 158.2 36 157.5 36 157V152Z" fill="white"/>
<g opacity="0.7">
<path d="M14 150C11.8 150 10 148.2 10 146C10 143.8 11.8 142 14 142C16.2 142 18 143.8 18 146C18 148.2 16.2 150 14 150ZM14 144C12.9 144 12 144.9 12 146C12 147.1 12.9 148 14 148C15.1 148 16 147.1 16 146C16 144.9 15.1 144 14 144Z" fill="white"/>
<path d="M16 166H12C11.5 166 11.1 165.6 11 165.2L10.1 159.7L8.6 158.9C8.2 158.7 8 158.4 8 158V152C8 151.4 8.4 151 9 151H19C19.6 151 20 151.4 20 152V158C20 158.4 19.8 158.7 19.4 158.9L17.9 159.7L17 165.2C16.9 165.6 16.5 166 16 166ZM12.8 164H15.1L16 158.8C16.1 158.5 16.3 158.2 16.5 158.1L17.9 157.4V153H9.9V157.4L11.3 158.1C11.6 158.2 11.8 158.5 11.8 158.8L12.8 164Z" fill="white"/>
</g>
<path d="M44 138H40C39.4 138 39 137.6 39 137C39 136.4 39.4 136 40 136H44C44.6 136 45 136.4 45 137C45 137.6 44.6 138 44 138Z" fill="white"/>
<path d="M45 135H39C38.4 135 38 134.6 38 134C38 133.4 38.4 133 39 133H45C45.6 133 46 133.4 46 134C46 134.6 45.6 135 45 135Z" fill="white"/>
<path d="M48.7999 124L45.3999 132H38.5999L35.1999 124C34.0999 121 34.5999 118.2 36.7999 116C39.6999 113.1 44.2999 113.2 47.0999 116C49.2999 118.2 49.8999 121 48.7999 124ZM46.9999 120C46.9999 117.8 45.1999 116 42.9999 116C42.3999 116 41.9999 116.4 41.9999 117C41.9999 117.6 42.3999 118 42.9999 118C44.0999 118 44.9999 118.9 44.9999 120C44.9999 120.6 45.3999 121 45.9999 121C46.5999 121 46.9999 120.6 46.9999 120Z" fill="white"/>
<path d="M16 138H12C11.4 138 11 137.6 11 137C11 136.4 11.4 136 12 136H16C16.6 136 17 136.4 17 137C17 137.6 16.6 138 16 138Z" fill="#BDBEBE"/>
<path d="M17 135H11C10.4 135 10 134.6 10 134C10 133.4 10.4 133 11 133H17C17.6 133 18 133.4 18 134C18 134.6 17.6 135 17 135Z" fill="#BDBEBE"/>
<path d="M19.9999 125C19.8999 125 19.6999 125 19.5999 124.9C19.0999 124.7 18.7999 124.1 19.0999 123.6C19.9999 121.5 19.4999 119.2 17.8999 117.6C15.7999 115.5 12.2999 115.5 10.0999 117.6C8.49989 119.2 8.09989 121.5 8.89989 123.6C9.09989 124.1 8.89989 124.7 8.39989 124.9C7.89989 125.1 7.29989 124.9 7.09989 124.4C5.89989 121.6 6.59989 118.4 8.69989 116.2C11.5999 113.3 16.3999 113.3 19.2999 116.2C21.4999 118.4 22.0999 121.6 20.8999 124.4C20.7999 124.8 20.3999 125 19.9999 125Z" fill="#BDBEBE"/>
<path d="M16.9998 132H10.9998C10.5998 132 10.1998 131.8 10.0998 131.4L7.09983 124.4C6.89983 123.9 7.09983 123.3 7.59983 123.1C8.09983 122.9 8.69983 123.1 8.89983 123.6L11.5998 130H16.2998L18.9998 123.6C19.1998 123.1 19.7998 122.9 20.2998 123.1C20.7998 123.3 20.9998 123.9 20.7998 124.4L17.7998 131.4C17.7998 131.8 17.3998 132 16.9998 132Z" fill="#BDBEBE"/>
<path d="M17 122C16.4 122 16 121.6 16 121C16 119.9 15.1 119 14 119C13.4 119 13 118.6 13 118C13 117.4 13.4 117 14 117C16.2 117 18 118.8 18 121C18 121.6 17.6 122 17 122Z" fill="#BDBEBE"/>
<path d="M51 108H33C32.4 108 32 107.6 32 107V89C32 88.4 32.4 88 33 88H41C41.6 88 42 88.4 42 89C42 89.6 41.6 90 41 90H34V106H50V99C50 98.4 50.4 98 51 98C51.6 98 52 98.4 52 99V107C52 107.6 51.6 108 51 108Z" fill="white"/>
<path d="M52.3 92.7L43.3 101.7C43.1 101.9 42.9 102 42.6 102H39C38.4 102 38 101.6 38 101V97.4C38 97.1 38.1 96.9 38.3 96.7L47.3 87.7C47.7 87.3 48.3 87.3 48.7 87.7L52.3 91.3C52.7 91.7 52.7 92.3 52.3 92.7Z" fill="white"/>
<path d="M23 108H5C4.4 108 4 107.6 4 107V89C4 88.4 4.4 88 5 88H13C13.6 88 14 88.4 14 89C14 89.6 13.6 90 13 90H6V106H22V99C22 98.4 22.4 98 23 98C23.6 98 24 98.4 24 99V107C24 107.6 23.6 108 23 108Z" fill="#BDBEBE"/>
<path d="M15 103H10C9.4 103 9 102.6 9 102V97C9 96.7 9.1 96.5 9.3 96.3L18.3 87.3C18.7 86.9 19.3 86.9 19.7 87.3L24.7 92.3C25.1 92.7 25.1 93.3 24.7 93.7L15.7 102.7C15.5 102.9 15.3 103 15 103ZM11 101H14.6L22.6 93L19 89.4L11 97.4V101Z" fill="#BDBEBE"/>
<path d="M53 68H51.8C51.5 66.7 51 65.5 50.3 64.5L51.2 63.6C51.6 63.2 51.6 62.6 51.2 62.2L49.8 60.8C49.4 60.4 48.8 60.4 48.4 60.8L47.5 61.7C46.5 61 45.3 60.5 44 60.2V59C44 58.4 43.6 58 43 58H41C40.4 58 40 58.4 40 59V60.2C38.7 60.5 37.5 61 36.5 61.7L35.6 60.8C35.2 60.4 34.6 60.4 34.2 60.8L32.8 62.2C32.4 62.6 32.4 63.2 32.8 63.6L33.7 64.5C33 65.5 32.5 66.7 32.2 68H31C30.4 68 30 68.4 30 69V71C30 71.6 30.4 72 31 72H32.2C32.5 73.3 33 74.5 33.7 75.5L32.8 76.4C32.4 76.8 32.4 77.4 32.8 77.8L34.2 79.2C34.6 79.6 35.2 79.6 35.6 79.2L36.5 78.3C37.5 79 38.7 79.5 40 79.8V81C40 81.6 40.4 82 41 82H43C43.6 82 44 81.6 44 81V79.8C45.3 79.5 46.5 79 47.5 78.3L48.4 79.2C48.8 79.6 49.4 79.6 49.8 79.2L51.2 77.8C51.6 77.4 51.6 76.8 51.2 76.4L50.3 75.5C51 74.5 51.5 73.3 51.8 72H53C53.6 72 54 71.6 54 71V69C54 68.4 53.6 68 53 68ZM42 76C38.7 76 36 73.3 36 70C36 66.7 38.7 64 42 64C45.3 64 48 66.7 48 70C48 73.3 45.3 76 42 76Z" fill="white"/>
<path d="M16 82H12C11.4 82 11 81.6 11 81V79.5C10.4 79.3 9.9 79.1 9.4 78.8L8.5 79.7C8.1 80.1 7.5 80.1 7.1 79.7L4.2 77C3.8 76.6 3.8 76 4.2 75.6L5.1 74.7C4.8 74.2 4.6 73.6 4.4 73.1H3C2.4 73.1 2 72.7 2 72.1V68.1C2 67.5 2.4 67.1 3 67.1H4.5C4.7 66.5 4.9 66 5.2 65.5L4.3 64.6C3.9 64.2 3.9 63.6 4.3 63.2L7 60.2C7.2 60 7.4 59.9 7.7 59.9C8 59.9 8.2 60 8.4 60.2L9.3 61.1C9.8 60.8 10.4 60.6 10.9 60.4V59C10.9 58.4 11.3 58 11.9 58H15.9C16.5 58 16.9 58.4 16.9 59V60.5C17.5 60.7 18 60.9 18.5 61.2L19.4 60.3C19.8 59.9 20.4 59.9 20.8 60.3L23.6 63.1C24 63.5 24 64.1 23.6 64.5L22.7 65.4C23 65.9 23.2 66.5 23.4 67H25C25.6 67 26 67.4 26 68V72C26 72.6 25.6 73 25 73H23.5C23.3 73.6 23.1 74.1 22.8 74.6L23.7 75.5C24.1 75.9 24.1 76.5 23.7 76.9L21 79.8C20.8 80 20.6 80.1 20.3 80.1C20 80.1 19.8 80 19.6 79.8L18.7 78.9C18.2 79.2 17.6 79.4 17.1 79.6V81C17 81.6 16.6 82 16 82ZM13 80H15V78.8C15 78.3 15.3 77.9 15.8 77.8C16.7 77.6 17.5 77.3 18.3 76.8C18.7 76.6 19.2 76.6 19.5 76.9L20.3 77.7L21.7 76.3L20.9 75.5C20.6 75.2 20.5 74.7 20.8 74.3C21.3 73.5 21.6 72.7 21.8 71.8C21.9 71.3 22.3 71 22.8 71H24V69H22.8C22.3 69 21.9 68.7 21.8 68.2C21.6 67.3 21.3 66.5 20.8 65.7C20.6 65.3 20.6 64.8 20.9 64.5L21.7 63.7L20.3 62.3L19.5 63.1C19.2 63.4 18.7 63.5 18.3 63.2C17.5 62.7 16.7 62.4 15.8 62.2C15.3 62.1 15 61.7 15 61.2V60H13V61.2C13 61.7 12.7 62.1 12.2 62.2C11.3 62.4 10.5 62.7 9.7 63.2C9.3 63.4 8.8 63.4 8.5 63.1L7.7 62.3L6.3 63.7L7.1 64.5C7.4 64.8 7.5 65.3 7.2 65.7C6.7 66.5 6.4 67.3 6.2 68.2C6.1 68.7 5.7 69 5.2 69H4V71H5.2C5.7 71 6.1 71.3 6.2 71.8C6.4 72.7 6.7 73.5 7.2 74.3C7.4 74.7 7.4 75.2 7.1 75.5L6.3 76.3L7.7 77.7L8.5 76.9C8.8 76.6 9.3 76.5 9.7 76.8C10.5 77.3 11.3 77.6 12.2 77.8C12.7 77.9 13 78.3 13 78.8V80Z" fill="white"/>
<path d="M14 76C10.7 76 8 73.3 8 70C8 66.7 10.7 64 14 64C17.3 64 20 66.7 20 70C20 73.3 17.3 76 14 76ZM14 66C11.8 66 10 67.8 10 70C10 72.2 11.8 74 14 74C16.2 74 18 72.2 18 70C18 67.8 16.2 66 14 66Z" fill="white"/>
<g opacity="0.5">
<path d="M12 49C7 49 3 45 3 40C3 35 7 31 12 31C17 31 21 35 21 40C21 45 17 49 12 49ZM12 33C8.1 33 5 36.1 5 40C5 43.9 8.1 47 12 47C15.9 47 19 43.9 19 40C19 36.1 15.9 33 12 33Z" fill="white"/>
<path d="M24 53C23.7 53 23.5 52.9 23.3 52.7L17.3 46.7C16.9 46.3 16.9 45.7 17.3 45.3C17.7 44.9 18.3 44.9 18.7 45.3L24.7 51.3C25.1 51.7 25.1 52.3 24.7 52.7C24.5 52.9 24.3 53 24 53Z" fill="white"/>
<path d="M16 41C15.4 41 15 40.6 15 40C15 38.3 13.7 37 12 37C11.4 37 11 36.6 11 36C11 35.4 11.4 35 12 35C14.8 35 17 37.2 17 40C17 40.6 16.6 41 16 41Z" fill="white"/>
</g>
<path d="M40 49C35 49 31 45 31 40C31 35 35 31 40 31C45 31 49 35 49 40C49 45 45 49 40 49ZM40 33C36.1 33 33 36.1 33 40C33 43.9 36.1 47 40 47C43.9 47 47 43.9 47 40C47 36.1 43.9 33 40 33Z" fill="white"/>
<path d="M52 53C51.7 53 51.5 52.9 51.3 52.7L45.3 46.7C44.9 46.3 44.9 45.7 45.3 45.3C45.7 44.9 46.3 44.9 46.7 45.3L52.7 51.3C53.1 51.7 53.1 52.3 52.7 52.7C52.5 52.9 52.3 53 52 53Z" fill="white"/>
<path d="M44 41C43.4 41 43 40.6 43 40C43 38.3 41.7 37 40 37C39.4 37 39 36.6 39 36C39 35.4 39.4 35 40 35C42.8 35 45 37.2 45 40C45 40.6 44.6 41 44 41Z" fill="white"/>
<path d="M42.7 3.59999C42.3 3.19999 41.6999 3.19999 41.2999 3.59999L30.2 14H32V24C32 24.6 32.4 25 33 25H40V17H44V25H51C51.6 25 52 24.6 52 24V14H53.9L42.7 3.59999Z" fill="white"/>
<path d="M23 25H16C15.4 25 15 24.6 15 24V18H13V24C13 24.6 12.6 25 12 25H5C4.4 25 4 24.6 4 24V15H3C2.6 15 2.2 14.7 2.1 14.4C2 14 2.1 13.6 2.4 13.3L13.4 3.30001C13.8 3.00001 14.4 3.00001 14.7 3.30001L25.7 13.3C26 13.6 26.1 14 26 14.4C25.8 14.7 25.4 15 25 15H24V24C24 24.6 23.6 25 23 25ZM17 23H22V14C22 13.6 22.2 13.3 22.5 13.1L14 5.40001L5.5 13.2C5.8 13.3 6 13.6 6 14V23H11V17C11 16.4 11.4 16 12 16H16C16.6 16 17 16.4 17 17V23Z" fill="#BDBEBE"/>
<g opacity="0.7">
<path d="M14 2156C6.3 2156 0 2162.3 0 2170C0 2177.7 6.3 2184 14 2184C21.7 2184 28 2177.7 28 2170C28 2162.3 21.7 2156 14 2156ZM22.3 2176.7L17.5 2181.5C16.4 2181.8 15.2 2182 14 2182C13.7 2182 13.4 2182 13 2182L14.2 2180.8C14.6 2180.4 14.6 2179.8 14.2 2179.4L13 2178V2174C13 2172.9 12.1 2172 11 2172H7C5.9 2172 5 2171.1 5 2170V2162.1C7.2 2159.6 10.4 2158 14 2158C15 2158 16 2158.1 17 2158.4V2159C17 2159.6 16.6 2160 16 2160C15.4 2160 15 2160.4 15 2161V2162L16.3 2163.3C16.7 2163.7 16.7 2164.3 16.3 2164.7L12.7 2168.3C12.3 2168.7 12.3 2169.3 12.7 2169.7L15 2172H19L22.3 2175.3C22.7 2175.7 22.7 2176.3 22.3 2176.7Z" fill="white"/>
</g>
<path opacity="0.7" d="M19 2196V2190C19 2187.2 17.1 2185 14.8 2185H13.2C10.9 2185 9 2187.2 9 2190V2196C6.8 2196 5 2197.8 5 2200V2209C5 2210.1 5.9 2211 7 2211H21C22.1 2211 23 2210.1 23 2209V2200C23 2197.8 21.2 2196 19 2196ZM11 2190C11 2188.4 12 2187 13.2 2187H14.8C16 2187 17 2188.4 17 2190V2196H11V2190Z" fill="white"/>
<path d="M5.25 632.625C4.55381 632.625 3.88613 632.348 3.39384 631.856C2.90156 631.364 2.625 630.696 2.625 630C2.625 629.304 2.90156 628.636 3.39384 628.144C3.88613 627.652 4.55381 627.375 5.25 627.375C5.94619 627.375 6.61387 627.652 7.10616 628.144C7.59844 628.636 7.875 629.304 7.875 630C7.875 630.696 7.59844 631.364 7.10616 631.856C6.61387 632.348 5.94619 632.625 5.25 632.625ZM14 632.625C13.3038 632.625 12.6361 632.348 12.1438 631.856C11.6516 631.364 11.375 630.696 11.375 630C11.375 629.304 11.6516 628.636 12.1438 628.144C12.6361 627.652 13.3038 627.375 14 627.375C14.6962 627.375 15.3639 627.652 15.8562 628.144C16.3484 628.636 16.625 629.304 16.625 630C16.625 630.696 16.3484 631.364 15.8562 631.856C15.3639 632.348 14.6962 632.625 14 632.625ZM22.75 632.625C22.0538 632.625 21.3861 632.348 20.8938 631.856C20.4016 631.364 20.125 630.696 20.125 630C20.125 629.304 20.4016 628.636 20.8938 628.144C21.3861 627.652 22.0538 627.375 22.75 627.375C23.4462 627.375 24.1139 627.652 24.6062 628.144C25.0984 628.636 25.375 629.304 25.375 630C25.375 630.696 25.0984 631.364 24.6062 631.856C24.1139 632.348 23.4462 632.625 22.75 632.625Z" fill="#BDBEBE"/>
<path d="M33.25 632.625C32.5538 632.625 31.8861 632.348 31.3938 631.856C30.9016 631.364 30.625 630.696 30.625 630C30.625 629.304 30.9016 628.636 31.3938 628.144C31.8861 627.652 32.5538 627.375 33.25 627.375C33.9462 627.375 34.6139 627.652 35.1062 628.144C35.5984 628.636 35.875 629.304 35.875 630C35.875 630.696 35.5984 631.364 35.1062 631.856C34.6139 632.348 33.9462 632.625 33.25 632.625ZM42 632.625C41.3038 632.625 40.6361 632.348 40.1438 631.856C39.6516 631.364 39.375 630.696 39.375 630C39.375 629.304 39.6516 628.636 40.1438 628.144C40.6361 627.652 41.3038 627.375 42 627.375C42.6962 627.375 43.3639 627.652 43.8562 628.144C44.3484 628.636 44.625 629.304 44.625 630C44.625 630.696 44.3484 631.364 43.8562 631.856C43.3639 632.348 42.6962 632.625 42 632.625ZM50.75 632.625C50.0538 632.625 49.3861 632.348 48.8938 631.856C48.4016 631.364 48.125 630.696 48.125 630C48.125 629.304 48.4016 628.636 48.8938 628.144C49.3861 627.652 50.0538 627.375 50.75 627.375C51.4462 627.375 52.1139 627.652 52.6062 628.144C53.0984 628.636 53.375 629.304 53.375 630C53.375 630.696 53.0984 631.364 52.6062 631.856C52.1139 632.348 51.4462 632.625 50.75 632.625Z" fill="white"/>
</svg>
