<svg width="512" height="511" viewBox="0 0 512 511" fill="none" xmlns="http://www.w3.org/2000/svg">
<rect x="149" y="116" width="27" height="93" transform="rotate(-90 149 116)" fill="white"/>
<rect x="336" y="89" width="27" height="93" fill="white"/>
<rect x="215" y="237" width="82" height="82" transform="rotate(-90 215 237)" fill="white"/>
<rect x="363" y="276" width="27" height="93" transform="rotate(90 363 276)" fill="white"/>
<rect x="176" y="303" width="27" height="92" transform="rotate(-180 176 303)" fill="white"/>
<path d="M144.455 398L121.076 318.727H145.074L155.912 367.499H156.532L169.383 318.727H188.272L201.123 367.653H201.742L212.58 318.727H236.579L213.199 398H192.607L179.137 353.719H178.517L165.047 398H144.455ZM315.338 358.364C315.338 367.189 313.622 374.634 310.19 380.698C306.758 386.736 302.126 391.317 296.294 394.439C290.462 397.536 283.96 399.084 276.786 399.084C269.56 399.084 263.032 397.523 257.2 394.4C251.394 391.252 246.775 386.659 243.343 380.62C239.936 374.556 238.233 367.137 238.233 358.364C238.233 349.538 239.936 342.107 243.343 336.068C246.775 330.004 251.394 325.424 257.2 322.327C263.032 319.205 269.56 317.643 276.786 317.643C283.96 317.643 290.462 319.205 296.294 322.327C302.126 325.424 306.758 330.004 310.19 336.068C313.622 342.107 315.338 349.538 315.338 358.364ZM293.198 358.364C293.198 353.616 292.566 349.616 291.301 346.364C290.062 343.087 288.217 340.61 285.766 338.933C283.34 337.229 280.347 336.378 276.786 336.378C273.225 336.378 270.219 337.229 267.767 338.933C265.341 340.61 263.496 343.087 262.232 346.364C260.993 349.616 260.374 353.616 260.374 358.364C260.374 363.112 260.993 367.124 262.232 370.402C263.496 373.653 265.341 376.13 267.767 377.833C270.219 379.511 273.225 380.349 276.786 380.349C280.347 380.349 283.34 379.511 285.766 377.833C288.217 376.13 290.062 373.653 291.301 370.402C292.566 367.124 293.198 363.112 293.198 358.364ZM368.029 343.5C367.822 340.92 366.855 338.907 365.126 337.462C363.423 336.017 360.829 335.294 357.346 335.294C355.126 335.294 353.307 335.565 351.888 336.107C350.494 336.623 349.462 337.333 348.791 338.236C348.12 339.139 347.772 340.171 347.746 341.332C347.695 342.287 347.862 343.152 348.249 343.926C348.662 344.674 349.307 345.358 350.185 345.977C351.062 346.571 352.185 347.113 353.552 347.603C354.92 348.093 356.546 348.532 358.429 348.919L364.932 350.312C369.319 351.241 373.074 352.467 376.196 353.99C379.319 355.512 381.873 357.306 383.86 359.37C385.847 361.409 387.305 363.705 388.234 366.26C389.189 368.815 389.679 371.602 389.705 374.621C389.679 379.833 388.376 384.246 385.796 387.859C383.215 391.471 379.525 394.22 374.725 396.103C369.951 397.987 364.21 398.929 357.5 398.929C350.611 398.929 344.598 397.91 339.463 395.871C334.353 393.833 330.379 390.697 327.541 386.465C324.728 382.207 323.309 376.763 323.283 370.131H343.721C343.85 372.556 344.456 374.595 345.54 376.246C346.624 377.898 348.146 379.15 350.107 380.001C352.094 380.853 354.455 381.278 357.191 381.278C359.487 381.278 361.41 380.995 362.958 380.427C364.506 379.859 365.681 379.072 366.481 378.066C367.281 377.059 367.693 375.911 367.719 374.621C367.693 373.408 367.293 372.35 366.519 371.447C365.771 370.518 364.532 369.692 362.803 368.969C361.074 368.221 358.739 367.524 355.797 366.879L347.901 365.176C340.882 363.654 335.347 361.112 331.296 357.551C327.27 353.964 325.27 349.074 325.296 342.881C325.27 337.849 326.612 333.449 329.321 329.681C332.057 325.888 335.837 322.933 340.663 320.817C345.514 318.701 351.075 317.643 357.346 317.643C363.745 317.643 369.28 318.714 373.951 320.856C378.622 322.998 382.222 326.017 384.75 329.914C387.305 333.784 388.595 338.313 388.621 343.5H368.029Z" fill="white"/>
</svg>
